<?xml version="1.0" encoding="UTF-8" standalone="no"?>
<!-- Created with Inkscape (http://www.inkscape.org/) -->

<svg
   xmlns:dc="http://purl.org/dc/elements/1.1/"
   xmlns:cc="http://creativecommons.org/ns#"
   xmlns:rdf="http://www.w3.org/1999/02/22-rdf-syntax-ns#"
   xmlns:svg="http://www.w3.org/2000/svg"
   xmlns="http://www.w3.org/2000/svg"
   xmlns:sodipodi="http://sodipodi.sourceforge.net/DTD/sodipodi-0.dtd"
   xmlns:inkscape="http://www.inkscape.org/namespaces/inkscape"
   width="210mm"
   height="297mm"
   viewBox="0 0 210 297"
   version="1.1"
   id="svg8"
   inkscape:version="0.92.3 (2405546, 2018-03-11)"
   sodipodi:docname="pignus-logo.svg">
  <defs
     id="defs2" />
  <sodipodi:namedview
     id="base"
     pagecolor="#ffffff"
     bordercolor="#666666"
     borderopacity="1.0"
     inkscape:pageopacity="0.0"
     inkscape:pageshadow="2"
     inkscape:zoom="0.7"
     inkscape:cx="362.76964"
     inkscape:cy="847.30579"
     inkscape:document-units="mm"
     inkscape:current-layer="layer1"
     showgrid="false"
     inkscape:window-width="1680"
     inkscape:window-height="988"
     inkscape:window-x="-8"
     inkscape:window-y="-8"
     inkscape:window-maximized="1" />
  <metadata
     id="metadata5">
    <rdf:RDF>
      <cc:Work
         rdf:about="">
        <dc:format>image/svg+xml</dc:format>
        <dc:type
           rdf:resource="http://purl.org/dc/dcmitype/StillImage" />
        <dc:title></dc:title>
      </cc:Work>
    </rdf:RDF>
  </metadata>
  <g
     inkscape:label="Capa 1"
     inkscape:groupmode="layer"
     id="layer1">
    <g
       id="g3724"
       transform="matrix(1.3564058,0,0,1.3564058,-41.404031,-172.14794)">
      <path
         style="fill:#066ea9;stroke-width:0.26458332"
         d="m 107.15413,200.78586 c -0.64074,-0.50401 -0.69714,-0.7065 -0.69714,-2.50323 0,-1.67029 0.0843,-2.0334 0.57906,-2.49434 0.60631,-0.56486 2.59594,-0.77555 2.59594,-0.27489 0,0.14552 -0.27116,0.26458 -0.60258,0.26458 -0.33143,0 -0.86721,0.18535 -1.19063,0.41188 -0.50328,0.35252 -0.58804,0.65542 -0.58804,2.10167 0,1.44624 0.0848,1.74915 0.58804,2.10166 0.32342,0.22653 0.86623,0.41188 1.20624,0.41188 0.34476,0 0.54588,0.11703 0.45468,0.26458 -0.27961,0.45242 -1.61503,0.29085 -2.34557,-0.28379 z m 4.22596,0.12986 c -0.26099,-0.68014 -0.17519,-4.97088 0.10804,-5.40232 0.48579,-0.74001 0.43304,0.27219 0.43732,2.69034 0.004,2.29663 0.21251,3.13049 -0.17679,3.13049 -0.11438,0 -0.28024,-0.18833 -0.36857,-0.41851 z m 3.70144,-0.42324 c -0.51713,-1.26319 -1.34064,-4.94284 -1.14908,-5.1344 0.37258,-0.37258 0.61956,0.27914 1.03182,2.13217 0.69831,3.13875 1.37726,3.17979 2.07606,0.13982 0.42028,-1.82836 0.7635,-2.51734 1.0909,-2.18993 0.15446,0.15446 -0.0311,1.28892 -0.49144,3.00497 -0.6976,2.60041 -0.78097,2.76162 -1.46919,2.84112 -0.61166,0.0707 -0.78772,-0.0576 -1.08907,-0.79375 z m 5.00003,0.53644 c -0.25438,-0.6629 -0.0203,-5.51822 0.26606,-5.5181 0.35645,1.4e-4 0.49788,5.29907 0.1507,5.64626 -0.17781,0.1778 -0.31562,0.13542 -0.41676,-0.12816 z m 4.00713,0.12173 c -0.0931,-0.0931 -0.1692,-1.22666 -0.1692,-2.51912 v -2.34992 l -0.79815,-0.3356 c -0.43899,-0.18458 -0.7168,-0.41696 -0.61736,-0.5164 0.2842,-0.2842 3.48223,-0.21108 3.66447,0.0838 0.0899,0.14552 -0.0578,0.26458 -0.32834,0.26458 -0.91602,0 -1.12687,0.55155 -1.12687,2.94772 0,2.12551 -0.18923,2.86027 -0.62455,2.42495 z m 3.20299,0.0101 c -0.16018,-0.27636 1.28479,-5.38309 1.61723,-5.71553 0.13267,-0.13267 0.51765,-0.20138 0.85552,-0.15267 0.53233,0.0767 0.71501,0.43716 1.36907,2.70124 0.77103,2.66896 0.79476,4.00862 0.0522,2.94355 -0.70993,-1.01821 -0.94206,-1.19062 -1.60297,-1.19062 -0.40696,0 -0.95676,0.3184 -1.41373,0.81872 -0.41128,0.45029 -0.80606,0.71819 -0.87728,0.59531 z m 3.2424,-2.62246 c 0,-0.21783 -0.18183,-0.83124 -0.40406,-1.36311 -0.36491,-0.87335 -0.44379,-0.92733 -0.81405,-0.55708 -0.22549,0.22549 -0.47452,0.89116 -0.5534,1.47927 -0.12009,0.8953 -0.063,1.08742 0.35102,1.18077 0.65912,0.14861 1.42049,-0.24794 1.42049,-0.73985 z m 3.0427,2.53135 c -0.0967,-0.15638 0.20089,-0.26458 0.72757,-0.26458 2.11815,0 2.35333,-1.37976 0.39376,-2.3101 -1.19276,-0.56629 -1.4049,-0.8898 -1.26109,-1.92324 0.10979,-0.78898 0.87057,-1.32291 1.88495,-1.32291 0.55094,0 1.07529,0.11906 1.16523,0.26458 0.0968,0.1566 -0.20407,0.26458 -0.73713,0.26458 -1.00992,0 -1.88068,0.74333 -1.63149,1.39273 0.0867,0.226 0.53608,0.56048 0.99857,0.74329 0.46248,0.18281 1.04924,0.50982 1.3039,0.72669 0.65862,0.56088 0.59185,1.77956 -0.12501,2.28167 -0.65579,0.45932 -2.46581,0.55737 -2.71926,0.14729 z m -27.7237,-12.44129 c -1.94742,-0.49428 -3.74485,-1.88041 -3.93794,-3.03683 -0.0856,-0.51256 0.13067,-0.53747 6.89112,-0.79375 5.70017,-0.21609 7.00379,-0.201 7.11212,0.0823 0.073,0.19081 0.0278,0.96233 -0.10031,1.7145 l -0.23295,1.36757 -1.45521,0.3421 c -1.90452,0.44773 -7.00315,0.64737 -8.27683,0.32409 z m 35.9701,-0.10892 c -2.12263,-0.57051 -3.50345,-1.89589 -3.78541,-3.63339 -0.15321,-0.94412 -0.14095,-0.95978 0.8668,-1.10746 2.15509,-0.31582 14.91284,-0.50394 14.91284,-0.21989 0,1.14472 -1.87841,3.48802 -3.42154,4.26835 -2.08476,1.05422 -6.03841,1.37355 -8.57269,0.69239 z m 15.50772,0.0216 c -1.05075,-0.18275 -1.99141,-0.41322 -2.09033,-0.51215 -0.20409,-0.20409 0.8864,-4.11453 1.28821,-4.61945 0.19463,-0.24458 0.92646,-0.28647 2.82798,-0.16186 1.60196,0.10499 2.9066,0.0595 3.47395,-0.12102 0.49972,-0.15904 2.27769,-0.3164 3.95105,-0.3497 3.47163,-0.0691 3.56512,-0.002 2.80111,1.99813 -0.54756,1.43377 -2.08795,2.92608 -3.59463,3.48243 -1.54563,0.57073 -6.14097,0.72128 -8.65734,0.28362 z m -83.849353,-1.14269 c 0.09317,-0.67972 0.198647,-1.26094 0.234401,-1.2916 0.03575,-0.0307 1.553288,-0.0996 3.372298,-0.15321 l 3.307292,-0.0975 -0.07522,1.05833 c -0.126672,1.78214 0.0059,1.71979 -3.656602,1.71979 h -3.351558 z m 18.273304,-0.1532 c 0.100481,-0.76398 0.287343,-1.4951 0.415245,-1.6247 0.127905,-0.1296 1.684216,-0.29542 3.458472,-0.3685 l 3.225921,-0.13286 -0.193937,1.55913 c -0.106667,0.85751 -0.248597,1.64842 -0.315404,1.75756 -0.0668,0.10914 -1.618059,0.19843 -3.44723,0.19843 h -3.325762 z m 26.195979,1.04712 c -0.0722,-0.18808 0.0209,-1.11081 0.20675,-2.05052 l 0.33796,-1.70858 3.0427,-0.15879 c 1.67349,-0.0873 3.13726,-0.0761 3.25282,0.0249 0.20145,0.17613 -0.22234,3.56205 -0.5026,4.01551 -0.23709,0.38362 -6.18755,0.26859 -6.33763,-0.12251 z m 10.12175,0.15149 c -0.17551,-0.29859 -1.01405,-4.0965 -0.92269,-4.17907 0.0423,-0.0382 1.90291,-0.15626 4.13471,-0.2623 l 4.05781,-0.19281 -0.18109,1.44945 c -0.0996,0.7972 -0.26344,1.85298 -0.36409,2.34617 l -0.183,0.89672 -3.21015,0.0741 c -1.76559,0.0408 -3.26476,-0.0188 -3.3315,-0.13229 z m -60.641625,-8.5408 c 0.226501,-0.36648 108.252655,-0.36648 108.479155,0 0.10882,0.17607 -18.03821,0.26459 -54.23957,0.26459 -36.201366,0 -54.348396,-0.0885 -54.239585,-0.26459 z m 6.674485,-1.52135 c -0.149349,-0.28601 2.015207,-14.15714 2.270818,-14.55208 0.267123,-0.41273 7.349011,-0.45084 10.0927,-0.0543 2.423398,0.35024 4.001095,1.27287 4.660701,2.72555 0.616016,1.35669 0.63686,2.79865 0.08399,5.81096 -0.548894,2.99066 -1.49787,4.48769 -3.506139,5.531 l -1.419275,0.73733 h -6.039588 c -3.321775,0 -6.086218,-0.0893 -6.143209,-0.19844 z m 9.691724,-4.96078 c 0.415086,-0.41508 0.813755,-2.75159 0.657857,-3.85555 -0.07176,-0.50818 -0.270571,-0.65986 -0.950799,-0.72545 -0.696094,-0.0671 -0.904237,0.0338 -1.091744,0.52917 -0.33105,0.87463 -0.642557,3.83913 -0.438166,4.16985 0.253867,0.41076 1.366078,0.33876 1.822852,-0.11802 z m 8.564866,4.96078 c -0.149072,-0.28642 2.01517,-14.15761 2.270477,-14.55208 0.243718,-0.37657 6.406153,-0.48515 6.633753,-0.11689 0.1247,0.20177 -1.826962,13.83025 -2.081722,14.53668 -0.132691,0.36795 -6.634246,0.49402 -6.822508,0.13229 z m 9.06878,-0.52917 c 0.002,-1.82964 1.28163,-8.74009 1.80964,-9.77469 1.7066,-3.34401 5.89959,-5.14077 10.99532,-4.71167 2.4153,0.20339 3.33372,0.4895 3.33372,1.03855 0,0.21437 -0.30232,1.34679 -0.67182,2.51647 l -0.67183,2.12671 -2.30473,-0.14783 c -2.02991,-0.13019 -2.40807,-0.0824 -3.17123,0.40062 -1.08205,0.68488 -1.20305,1.01526 -1.78032,4.86104 -0.3589,2.391 -0.3995,3.27401 -0.17337,3.77032 l 0.29529,0.64809 h -3.83078 -3.83079 l 8e-4,-0.72761 z m 9.51401,-1.71979 c 0.22383,-1.34607 0.50329,-2.59622 0.62102,-2.77812 0.26465,-0.40892 5.09521,-0.46578 5.3442,-0.0629 0.15314,0.24779 -0.25916,3.76835 -0.56511,4.82541 -0.11688,0.40384 -0.49653,0.46302 -2.97055,0.46302 h -2.83653 z m 7.68423,1.98438 c 0.003,-1.19939 2.07617,-14.15563 2.30086,-14.38032 0.14447,-0.14447 1.62288,-0.22291 3.40266,-0.18054 l 3.14719,0.0749 0.59778,2.77813 c 1.26835,5.89453 1.56603,6.08201 2.28016,1.43604 0.72201,-4.69725 0.39986,-4.34646 3.99155,-4.34646 1.66802,0 3.09789,0.10539 3.1775,0.23419 0.1354,0.21908 -1.81868,13.79533 -2.08939,14.51633 -0.0922,0.24546 -1.20579,0.33073 -4.31917,0.33073 h -4.19499 l -0.37737,-1.25677 c -0.20756,-0.69123 -0.49644,-1.23403 -0.64196,-1.20624 -0.14552,0.0278 -0.37384,0.59334 -0.50737,1.25677 l -0.24278,1.20624 h -3.26295 c -2.93164,0 -3.26282,-0.047 -3.26172,-0.46302 z m 19.31732,-0.26459 c 0.002,-0.40018 0.30311,-2.69213 0.66875,-5.09322 0.36564,-2.4011 0.79417,-5.31813 0.95229,-6.4823 0.15811,-1.16416 0.40753,-2.26549 0.55426,-2.44739 0.3126,-0.38753 6.4299,-0.47775 6.66442,-0.0983 0.079,0.12785 -0.26731,2.95558 -0.7696,6.28386 -1.01666,6.73651 -1.08627,7.4371 -0.80501,8.10193 0.18121,0.42834 -0.0836,0.46302 -3.5366,0.46302 h -3.73247 l 0.004,-0.72761 z m 8.72729,0.51594 c 0,-0.11641 0.11907,-0.33074 0.26461,-0.47627 0.14553,-0.14554 0.72623,-3.31223 1.29043,-7.03709 0.56421,-3.72487 1.10701,-6.90382 1.20622,-7.06435 0.27548,-0.44574 6.47598,-0.39555 6.64842,0.0538 0.14224,0.37069 -1.88317,14.0657 -2.14223,14.48487 -0.187,0.30257 -7.26745,0.34059 -7.26745,0.039 z m 9.78958,-0.18521 c 0,-0.47445 0.38484,-0.47584 2.64583,-0.01 l 1.7198,0.35464 -2.18282,0.0259 c -1.77541,0.0211 -2.18281,-0.0482 -2.18281,-0.37097 z m 5.82083,0.0556 c 0.36381,-0.1834 0.69729,-0.58141 0.74107,-0.88447 0.0833,-0.57618 0.0629,-0.58781 -2.72544,-1.55913 -2.9716,-1.03515 -3.86236,-2.5016 -3.3357,-5.49152 0.38286,-2.17352 1.18121,-3.69975 2.57878,-4.92995 1.35771,-1.19509 2.9162,-1.79961 5.22517,-2.02676 1.77178,-0.1743 5.93679,0.26458 6.34031,0.6681 0.22477,0.22477 -0.89019,4.86709 -1.25705,5.23396 -0.0683,0.0683 -0.97246,-0.0188 -2.00916,-0.19369 -2.02018,-0.34075 -3.47142,-0.20473 -3.94845,0.37005 -0.48944,0.58973 -0.0456,1.16603 1.25807,1.63349 3.03188,1.08717 4.04743,1.72326 4.56265,2.85784 0.49212,1.08371 0.64637,2.92663 0.34049,4.06802 -0.15688,0.58539 -0.22848,0.59524 -4.29587,0.59141 -3.50228,-0.003 -4.03493,-0.055 -3.47487,-0.33735 z"
         id="path3730"
         inkscape:connector-curvature="0"
         sodipodi:nodetypes="cscsscscscccccsccscccccccccccsccscsscccscccscccsscccscsccscscccccccscccccccccsscccccccccccccccsccccccccsccccccccccccccscccccccscccccsccsccccccccccccccccsccccsccccccccccscccsccsssccscccccscccscccccscccccccccccccccccccccccsccccsccc" />
      <path
         style="fill:#255170;stroke-width:0.26458332"
         d="m 67.430955,179.90298 c 0.226501,-0.36648 108.252655,-0.36648 108.479155,0 0.10882,0.17607 -18.03821,0.26459 -54.23957,0.26459 -36.201366,0 -54.348396,-0.0885 -54.239585,-0.26459 z m 6.674485,-1.52135 c -0.149349,-0.28601 2.015207,-14.15714 2.270818,-14.55208 0.267123,-0.41273 7.349011,-0.45084 10.0927,-0.0543 2.423398,0.35024 4.001095,1.27287 4.660701,2.72555 0.616016,1.35669 0.63686,2.79865 0.08399,5.81096 -0.548894,2.99066 -1.49787,4.48769 -3.506139,5.531 l -1.419275,0.73733 h -6.039588 c -3.321775,0 -6.086218,-0.0893 -6.143209,-0.19844 z m 9.691724,-4.96078 c 0.415086,-0.41508 0.813755,-2.75159 0.657857,-3.85555 -0.07176,-0.50818 -0.270571,-0.65986 -0.950799,-0.72545 -0.696094,-0.0671 -0.904237,0.0338 -1.091744,0.52917 -0.33105,0.87463 -0.642557,3.83913 -0.438166,4.16985 0.253867,0.41076 1.366078,0.33876 1.822852,-0.11802 z m 8.564866,4.96075 c -0.149072,-0.28642 2.01517,-14.15758 2.270477,-14.55205 0.243718,-0.37657 6.406153,-0.48515 6.633753,-0.11689 0.1247,0.20177 -1.826962,13.83025 -2.081722,14.53668 -0.132691,0.36795 -6.634246,0.49399 -6.822508,0.13226 z m 9.06878,-0.52914 c 0.002,-1.82964 1.28163,-8.74009 1.80964,-9.77469 1.7066,-3.34401 5.89959,-5.14077 10.99532,-4.71167 2.4153,0.20339 3.33372,0.4895 3.33372,1.03855 0,0.21437 -0.30232,1.34679 -0.67182,2.51647 l -0.67183,2.12671 -2.30473,-0.14783 c -2.02991,-0.13019 -2.40807,-0.0824 -3.17123,0.40062 -1.08205,0.68488 -1.20305,1.01526 -1.78032,4.86104 -0.3589,2.391 -0.3995,3.27401 -0.17337,3.77032 l 0.29529,0.64809 h -3.83078 -3.83079 l 8e-4,-0.72761 z m 9.51401,-1.71979 c 0.22383,-1.34607 0.50329,-2.59622 0.62102,-2.77812 0.26465,-0.40892 5.09521,-0.46578 5.3442,-0.0629 0.15314,0.24779 -0.25916,3.76835 -0.56511,4.82541 -0.11688,0.40384 -0.49653,0.46302 -2.97055,0.46302 h -2.83653 z m 7.68423,1.98438 c 0.003,-1.19939 2.07617,-14.15563 2.30086,-14.38032 0.14447,-0.14447 1.62288,-0.22291 3.40266,-0.18054 l 3.14719,0.0749 0.59778,2.77813 c 1.26835,5.89453 1.56603,6.08201 2.28016,1.43604 0.72201,-4.69725 0.39986,-4.34646 3.99155,-4.34646 1.66802,0 3.09789,0.10539 3.1775,0.23419 0.1354,0.21908 -1.81868,13.79533 -2.08939,14.51633 -0.0922,0.24546 -1.20579,0.33073 -4.31917,0.33073 h -4.19499 l -0.37737,-1.25677 c -0.20756,-0.69123 -0.49644,-1.23403 -0.64196,-1.20624 -0.14552,0.0278 -0.37384,0.59334 -0.50737,1.25677 l -0.24278,1.20624 h -3.26295 c -2.93164,0 -3.26282,-0.047 -3.26172,-0.46302 z m 19.31732,-0.26459 c 0.002,-0.40018 0.30311,-2.69213 0.66875,-5.09322 0.36564,-2.4011 0.79417,-5.31813 0.95229,-6.4823 0.15811,-1.16416 0.40753,-2.26549 0.55426,-2.44739 0.3126,-0.38753 6.4299,-0.47775 6.66442,-0.0983 0.079,0.12785 -0.26731,2.95558 -0.7696,6.28386 -1.01666,6.73651 -1.08627,7.4371 -0.80501,8.10193 0.18121,0.42834 -0.0836,0.46302 -3.5366,0.46302 h -3.73247 l 0.004,-0.72761 z m 8.72729,0.51594 c 0,-0.11641 0.11907,-0.33074 0.26461,-0.47627 0.14553,-0.14554 0.72623,-3.31223 1.29043,-7.03709 0.56421,-3.72487 1.10701,-6.90382 1.20622,-7.06435 0.27548,-0.44574 6.47598,-0.39555 6.64842,0.0538 0.14224,0.37069 -1.88317,14.0657 -2.14223,14.48487 -0.187,0.30257 -7.26745,0.34059 -7.26745,0.039 z m 9.78958,-0.18521 c 0,-0.47445 0.38484,-0.47584 2.64583,-0.01 l 1.7198,0.35464 -2.18282,0.0259 c -1.77541,0.0211 -2.18281,-0.0482 -2.18281,-0.37097 z m 5.82083,0.0556 c 0.36381,-0.1834 0.69729,-0.58141 0.74107,-0.88447 0.0833,-0.57618 0.0629,-0.58781 -2.72544,-1.55913 -2.9716,-1.03515 -3.86236,-2.5016 -3.3357,-5.49152 0.38286,-2.17352 1.18121,-3.69975 2.57878,-4.92995 1.35771,-1.19509 2.9162,-1.79961 5.22517,-2.02676 1.77178,-0.1743 5.93679,0.26458 6.34031,0.6681 0.22477,0.22477 -0.89019,4.86709 -1.25705,5.23396 -0.0683,0.0683 -0.97246,-0.0188 -2.00916,-0.19369 -2.02018,-0.34075 -3.47142,-0.20473 -3.94845,0.37005 -0.48944,0.58973 -0.0456,1.16603 1.25807,1.63349 3.03188,1.08717 4.04743,1.72326 4.56265,2.85784 0.49212,1.08371 0.64637,2.92663 0.34049,4.06802 -0.15688,0.58539 -0.22848,0.59524 -4.29587,0.59141 -3.50228,-0.003 -4.03493,-0.055 -3.47487,-0.33735 z"
         id="path3728"
         inkscape:connector-curvature="0"
         sodipodi:nodetypes="ccscccccsccsccccccccccccccccsccccsccccccccccscccsccsssccscccccscccscccccscccccccccccccccccccccccsccccsccc" />
      <path
         style="fill:#003458;stroke-width:0.26458332"
         d="m 73.972682,176.29595 c 0,0 0.548939,-3.46908 1.011176,-5.94894 0.68982,-3.70084 1.416355,-6.27602 1.483808,-6.38517 0.192381,-0.31128 8.900863,-0.23202 10.463286,0.0952 4.015618,0.84107 5.51634,2.89254 4.50751,8.16522 -0.43361,2.26627 -0.889316,3.51598 -1.959169,4.59693 -1.532675,2.09095 -1.960687,1.82188 -8.617727,1.82827 l -6.756128,-0.26581 z m 9.971146,-2.71938 c 0.596868,-0.59687 1.047871,-3.83032 0.627853,-4.50139 -0.143542,-0.22934 -0.688991,-0.45356 -1.212106,-0.49825 -0.90116,-0.077 -0.965094,-0.0284 -1.217091,0.92604 -0.396942,1.50335 -0.642676,3.70793 -0.464934,4.17111 0.221456,0.57711 1.653265,0.5155 2.266278,-0.0975 z m 8.578082,4.1436 c 0.07986,-0.32742 0.580384,-3.51234 1.112282,-7.0776 0.531894,-3.56526 1.02227,-6.57158 1.089723,-6.68073 0.128132,-0.20732 6.441415,-0.28637 6.441415,-0.0807 0,0.16649 -0.9521,6.51736 -1.584404,10.56852 -0.292745,1.87564 -0.532264,2.60355 -0.532264,2.60355 0.328749,1.79693 -1.304145,1.45927 -3.138932,1.45927 -3.326162,0 -3.53259,-0.19899 -3.38782,-0.79231 z m 8.82776,-0.0516 c -0.0845,-1.66966 1.46547,-7.99876 1.96883,-9.16886 0.72131,-1.67673 2.69954,-3.4694 4.67265,-4.23435 2.4748,-0.95946 9.31376,-0.82942 9.31376,0.1771 0,0.21475 -0.26424,1.28863 -0.58721,2.38639 l -0.58721,1.99593 -1.9014,-0.17817 c -2.16876,-0.20323 -3.42253,0.10132 -4.31114,1.04719 -0.46681,0.4969 -0.68697,1.31387 -1.0853,4.02722 -0.27484,1.87213 -0.43264,3.67176 -0.35066,3.99918 0.14887,0.59467 0.9816,0.75493 -2.4818,0.84162 l -4.59948,0.11512 z m 9.6338,-0.0711 c 0.0157,-0.40545 0.16453,-1.51109 0.33073,-2.45697 l 0.30217,-1.7198 2.57969,-0.0757 2.57968,-0.0757 -0.0286,0.73719 c -0.0157,0.40545 -0.16453,1.51109 -0.33072,2.45697 l -0.30217,1.71979 -2.57969,0.0757 -2.57969,0.0757 z m 8.01204,-0.67104 c 0.0968,-0.76398 0.5655,-4.00843 1.04162,-7.20989 l 0.86568,-5.82084 3.20772,-0.0741 3.20772,-0.0741 0.31424,1.52934 c 1.2737,6.19879 1.50614,6.86707 2.16082,6.21238 0.17467,-0.17466 0.56162,-1.95465 0.8599,-3.95552 l 0.54232,-3.63795 3.10886,-0.0745 c 1.70987,-0.041 3.1083,0.0186 3.10763,0.13229 -0.002,0.2645 -0.86143,6.06016 -1.56882,10.57406 -0.30064,1.91844 -0.54662,3.55857 -0.54662,3.64474 0,0.0862 -1.87003,0.12389 -4.15562,0.0838 l -4.15562,-0.0729 -0.21531,-1.03761 c -0.28101,-1.35424 -0.68031,-1.84976 -1.16585,-1.44679 -0.19897,0.16513 -0.36339,0.55355 -0.36538,0.86315 -0.002,0.30961 -0.0754,0.83081 -0.16315,1.15823 -0.15374,0.57369 -0.2703,0.59531 -3.20782,0.59531 h -3.04828 z m 19.21148,0.74212 c 0,-0.59703 0.28162,-2.58326 1.52136,-10.73014 l 0.46302,-3.04271 3.27711,-0.0746 3.27712,-0.0746 -0.15273,1.00062 c -1.4216,9.3141 -1.76251,11.74106 -1.76652,12.57614 l -0.005,0.99218 h -3.3073 -3.30729 z m 9.1132,0.19357 c 0.0957,-0.24936 0.58636,-3.31521 1.09039,-6.81302 0.50404,-3.4978 0.98229,-6.56801 1.06279,-6.82267 0.12875,-0.40729 0.53047,-0.46302 3.33762,-0.46302 h 3.19126 l -0.17714,1.38906 c -0.2476,1.94159 -1.71486,11.55273 -1.89843,12.43542 l -0.15132,0.7276 h -3.31457 c -3.02117,0 -3.29918,-0.0401 -3.1406,-0.45337 z m 9.60607,0.27815 c 0.1819,-0.0734 0.47956,-0.0734 0.66146,0 0.1819,0.0734 0.0331,0.13345 -0.33073,0.13345 -0.3638,0 -0.51263,-0.0601 -0.33073,-0.13345 z m 6.28085,-0.67601 c 0.003,-0.84224 -0.0531,-0.88578 -2.03431,-1.58018 -2.56844,-0.90024 -3.36647,-1.42444 -3.81961,-2.50896 -0.49654,-1.18837 -0.45234,-2.38037 0.162,-4.36938 1.02737,-3.32625 3.52629,-5.17526 7.33424,-5.42679 1.93205,-0.12762 5.76704,0.22659 6.10426,0.5638 0.083,0.083 -0.14043,1.19246 -0.49649,2.46547 l -0.6474,2.31457 -0.91859,-0.0478 c -4.6237,-0.24037 -4.51029,-0.24945 -5.03892,0.40306 -0.71086,0.87743 -0.29252,1.48452 1.40583,2.04012 1.95268,0.63881 3.13621,1.27452 3.90512,2.09757 0.58654,0.62785 0.66146,0.93793 0.66146,2.73773 v 2.02969 l -3.3103,0.0736 -3.31029,0.0736 z"
         id="path3726"
         inkscape:connector-curvature="0"
         sodipodi:nodetypes="csccscccccsccccccccsccsccsccsccccccscscccccccccccccccccccccccsccccccscccsccccccccccccscsccsccssccccsscccccccscccc" />
    </g>
  </g>
</svg>
