<svg version="1.1" xmlns="http://www.w3.org/2000/svg" xmlns:xlink="http://www.w3.org/1999/xlink" width="1140.6181640625" height="440"><defs/><g><text fill="#eeeeee" stroke="none" font-family="Arial" font-size="24px" font-style="normal" font-weight="normal" text-decoration="none" x="0" y="0">UNREGISTERED</text><text fill="#eeeeee" stroke="none" font-family="Arial" font-size="24px" font-style="normal" font-weight="normal" text-decoration="none" x="0" y="30">UNREGISTERED</text><text fill="#eeeeee" stroke="none" font-family="Arial" font-size="24px" font-style="normal" font-weight="normal" text-decoration="none" x="0" y="60">UNREGISTERED</text><text fill="#eeeeee" stroke="none" font-family="Arial" font-size="24px" font-style="normal" font-weight="normal" text-decoration="none" x="0" y="90">UNREGISTERED</text><text fill="#eeeeee" stroke="none" font-family="Arial" font-size="24px" font-style="normal" font-weight="normal" text-decoration="none" x="0" y="120">UNREGISTERED</text><text fill="#eeeeee" stroke="none" font-family="Arial" font-size="24px" font-style="normal" font-weight="normal" text-decoration="none" x="0" y="150">UNREGISTERED</text><text fill="#eeeeee" stroke="none" font-family="Arial" font-size="24px" font-style="normal" font-weight="normal" text-decoration="none" x="0" y="180">UNREGISTERED</text><text fill="#eeeeee" stroke="none" font-family="Arial" font-size="24px" font-style="normal" font-weight="normal" text-decoration="none" x="0" y="210">UNREGISTERED</text><text fill="#eeeeee" stroke="none" font-family="Arial" font-size="24px" font-style="normal" font-weight="normal" text-decoration="none" x="0" y="240">UNREGISTERED</text><text fill="#eeeeee" stroke="none" font-family="Arial" font-size="24px" font-style="normal" font-weight="normal" text-decoration="none" x="0" y="270">UNREGISTERED</text><text fill="#eeeeee" stroke="none" font-family="Arial" font-size="24px" font-style="normal" font-weight="normal" text-decoration="none" x="0" y="300">UNREGISTERED</text><text fill="#eeeeee" stroke="none" font-family="Arial" font-size="24px" font-style="normal" font-weight="normal" text-decoration="none" x="0" y="330">UNREGISTERED</text><text fill="#eeeeee" stroke="none" font-family="Arial" font-size="24px" font-style="normal" font-weight="normal" text-decoration="none" x="0" y="360">UNREGISTERED</text><text fill="#eeeeee" stroke="none" font-family="Arial" font-size="24px" font-style="normal" font-weight="normal" text-decoration="none" x="0" y="390">UNREGISTERED</text><text fill="#eeeeee" stroke="none" font-family="Arial" font-size="24px" font-style="normal" font-weight="normal" text-decoration="none" x="0" y="420">UNREGISTERED</text><text fill="#eeeeee" stroke="none" font-family="Arial" font-size="24px" font-style="normal" font-weight="normal" text-decoration="none" x="200" y="0">UNREGISTERED</text><text fill="#eeeeee" stroke="none" font-family="Arial" font-size="24px" font-style="normal" font-weight="normal" text-decoration="none" x="200" y="30">UNREGISTERED</text><text fill="#eeeeee" stroke="none" font-family="Arial" font-size="24px" font-style="normal" font-weight="normal" text-decoration="none" x="200" y="60">UNREGISTERED</text><text fill="#eeeeee" stroke="none" font-family="Arial" font-size="24px" font-style="normal" font-weight="normal" text-decoration="none" x="200" y="90">UNREGISTERED</text><text fill="#eeeeee" stroke="none" font-family="Arial" font-size="24px" font-style="normal" font-weight="normal" text-decoration="none" x="200" y="120">UNREGISTERED</text><text fill="#eeeeee" stroke="none" font-family="Arial" font-size="24px" font-style="normal" font-weight="normal" text-decoration="none" x="200" y="150">UNREGISTERED</text><text fill="#eeeeee" stroke="none" font-family="Arial" font-size="24px" font-style="normal" font-weight="normal" text-decoration="none" x="200" y="180">UNREGISTERED</text><text fill="#eeeeee" stroke="none" font-family="Arial" font-size="24px" font-style="normal" font-weight="normal" text-decoration="none" x="200" y="210">UNREGISTERED</text><text fill="#eeeeee" stroke="none" font-family="Arial" font-size="24px" font-style="normal" font-weight="normal" text-decoration="none" x="200" y="240">UNREGISTERED</text><text fill="#eeeeee" stroke="none" font-family="Arial" font-size="24px" font-style="normal" font-weight="normal" text-decoration="none" x="200" y="270">UNREGISTERED</text><text fill="#eeeeee" stroke="none" font-family="Arial" font-size="24px" font-style="normal" font-weight="normal" text-decoration="none" x="200" y="300">UNREGISTERED</text><text fill="#eeeeee" stroke="none" font-family="Arial" font-size="24px" font-style="normal" font-weight="normal" text-decoration="none" x="200" y="330">UNREGISTERED</text><text fill="#eeeeee" stroke="none" font-family="Arial" font-size="24px" font-style="normal" font-weight="normal" text-decoration="none" x="200" y="360">UNREGISTERED</text><text fill="#eeeeee" stroke="none" font-family="Arial" font-size="24px" font-style="normal" font-weight="normal" text-decoration="none" x="200" y="390">UNREGISTERED</text><text fill="#eeeeee" stroke="none" font-family="Arial" font-size="24px" font-style="normal" font-weight="normal" text-decoration="none" x="200" y="420">UNREGISTERED</text><text fill="#eeeeee" stroke="none" font-family="Arial" font-size="24px" font-style="normal" font-weight="normal" text-decoration="none" x="400" y="0">UNREGISTERED</text><text fill="#eeeeee" stroke="none" font-family="Arial" font-size="24px" font-style="normal" font-weight="normal" text-decoration="none" x="400" y="30">UNREGISTERED</text><text fill="#eeeeee" stroke="none" font-family="Arial" font-size="24px" font-style="normal" font-weight="normal" text-decoration="none" x="400" y="60">UNREGISTERED</text><text fill="#eeeeee" stroke="none" font-family="Arial" font-size="24px" font-style="normal" font-weight="normal" text-decoration="none" x="400" y="90">UNREGISTERED</text><text fill="#eeeeee" stroke="none" font-family="Arial" font-size="24px" font-style="normal" font-weight="normal" text-decoration="none" x="400" y="120">UNREGISTERED</text><text fill="#eeeeee" stroke="none" font-family="Arial" font-size="24px" font-style="normal" font-weight="normal" text-decoration="none" x="400" y="150">UNREGISTERED</text><text fill="#eeeeee" stroke="none" font-family="Arial" font-size="24px" font-style="normal" font-weight="normal" text-decoration="none" x="400" y="180">UNREGISTERED</text><text fill="#eeeeee" stroke="none" font-family="Arial" font-size="24px" font-style="normal" font-weight="normal" text-decoration="none" x="400" y="210">UNREGISTERED</text><text fill="#eeeeee" stroke="none" font-family="Arial" font-size="24px" font-style="normal" font-weight="normal" text-decoration="none" x="400" y="240">UNREGISTERED</text><text fill="#eeeeee" stroke="none" font-family="Arial" font-size="24px" font-style="normal" font-weight="normal" text-decoration="none" x="400" y="270">UNREGISTERED</text><text fill="#eeeeee" stroke="none" font-family="Arial" font-size="24px" font-style="normal" font-weight="normal" text-decoration="none" x="400" y="300">UNREGISTERED</text><text fill="#eeeeee" stroke="none" font-family="Arial" font-size="24px" font-style="normal" font-weight="normal" text-decoration="none" x="400" y="330">UNREGISTERED</text><text fill="#eeeeee" stroke="none" font-family="Arial" font-size="24px" font-style="normal" font-weight="normal" text-decoration="none" x="400" y="360">UNREGISTERED</text><text fill="#eeeeee" stroke="none" font-family="Arial" font-size="24px" font-style="normal" font-weight="normal" text-decoration="none" x="400" y="390">UNREGISTERED</text><text fill="#eeeeee" stroke="none" font-family="Arial" font-size="24px" font-style="normal" font-weight="normal" text-decoration="none" x="400" y="420">UNREGISTERED</text><text fill="#eeeeee" stroke="none" font-family="Arial" font-size="24px" font-style="normal" font-weight="normal" text-decoration="none" x="600" y="0">UNREGISTERED</text><text fill="#eeeeee" stroke="none" font-family="Arial" font-size="24px" font-style="normal" font-weight="normal" text-decoration="none" x="600" y="30">UNREGISTERED</text><text fill="#eeeeee" stroke="none" font-family="Arial" font-size="24px" font-style="normal" font-weight="normal" text-decoration="none" x="600" y="60">UNREGISTERED</text><text fill="#eeeeee" stroke="none" font-family="Arial" font-size="24px" font-style="normal" font-weight="normal" text-decoration="none" x="600" y="90">UNREGISTERED</text><text fill="#eeeeee" stroke="none" font-family="Arial" font-size="24px" font-style="normal" font-weight="normal" text-decoration="none" x="600" y="120">UNREGISTERED</text><text fill="#eeeeee" stroke="none" font-family="Arial" font-size="24px" font-style="normal" font-weight="normal" text-decoration="none" x="600" y="150">UNREGISTERED</text><text fill="#eeeeee" stroke="none" font-family="Arial" font-size="24px" font-style="normal" font-weight="normal" text-decoration="none" x="600" y="180">UNREGISTERED</text><text fill="#eeeeee" stroke="none" font-family="Arial" font-size="24px" font-style="normal" font-weight="normal" text-decoration="none" x="600" y="210">UNREGISTERED</text><text fill="#eeeeee" stroke="none" font-family="Arial" font-size="24px" font-style="normal" font-weight="normal" text-decoration="none" x="600" y="240">UNREGISTERED</text><text fill="#eeeeee" stroke="none" font-family="Arial" font-size="24px" font-style="normal" font-weight="normal" text-decoration="none" x="600" y="270">UNREGISTERED</text><text fill="#eeeeee" stroke="none" font-family="Arial" font-size="24px" font-style="normal" font-weight="normal" text-decoration="none" x="600" y="300">UNREGISTERED</text><text fill="#eeeeee" stroke="none" font-family="Arial" font-size="24px" font-style="normal" font-weight="normal" text-decoration="none" x="600" y="330">UNREGISTERED</text><text fill="#eeeeee" stroke="none" font-family="Arial" font-size="24px" font-style="normal" font-weight="normal" text-decoration="none" x="600" y="360">UNREGISTERED</text><text fill="#eeeeee" stroke="none" font-family="Arial" font-size="24px" font-style="normal" font-weight="normal" text-decoration="none" x="600" y="390">UNREGISTERED</text><text fill="#eeeeee" stroke="none" font-family="Arial" font-size="24px" font-style="normal" font-weight="normal" text-decoration="none" x="600" y="420">UNREGISTERED</text><text fill="#eeeeee" stroke="none" font-family="Arial" font-size="24px" font-style="normal" font-weight="normal" text-decoration="none" x="800" y="0">UNREGISTERED</text><text fill="#eeeeee" stroke="none" font-family="Arial" font-size="24px" font-style="normal" font-weight="normal" text-decoration="none" x="800" y="30">UNREGISTERED</text><text fill="#eeeeee" stroke="none" font-family="Arial" font-size="24px" font-style="normal" font-weight="normal" text-decoration="none" x="800" y="60">UNREGISTERED</text><text fill="#eeeeee" stroke="none" font-family="Arial" font-size="24px" font-style="normal" font-weight="normal" text-decoration="none" x="800" y="90">UNREGISTERED</text><text fill="#eeeeee" stroke="none" font-family="Arial" font-size="24px" font-style="normal" font-weight="normal" text-decoration="none" x="800" y="120">UNREGISTERED</text><text fill="#eeeeee" stroke="none" font-family="Arial" font-size="24px" font-style="normal" font-weight="normal" text-decoration="none" x="800" y="150">UNREGISTERED</text><text fill="#eeeeee" stroke="none" font-family="Arial" font-size="24px" font-style="normal" font-weight="normal" text-decoration="none" x="800" y="180">UNREGISTERED</text><text fill="#eeeeee" stroke="none" font-family="Arial" font-size="24px" font-style="normal" font-weight="normal" text-decoration="none" x="800" y="210">UNREGISTERED</text><text fill="#eeeeee" stroke="none" font-family="Arial" font-size="24px" font-style="normal" font-weight="normal" text-decoration="none" x="800" y="240">UNREGISTERED</text><text fill="#eeeeee" stroke="none" font-family="Arial" font-size="24px" font-style="normal" font-weight="normal" text-decoration="none" x="800" y="270">UNREGISTERED</text><text fill="#eeeeee" stroke="none" font-family="Arial" font-size="24px" font-style="normal" font-weight="normal" text-decoration="none" x="800" y="300">UNREGISTERED</text><text fill="#eeeeee" stroke="none" font-family="Arial" font-size="24px" font-style="normal" font-weight="normal" text-decoration="none" x="800" y="330">UNREGISTERED</text><text fill="#eeeeee" stroke="none" font-family="Arial" font-size="24px" font-style="normal" font-weight="normal" text-decoration="none" x="800" y="360">UNREGISTERED</text><text fill="#eeeeee" stroke="none" font-family="Arial" font-size="24px" font-style="normal" font-weight="normal" text-decoration="none" x="800" y="390">UNREGISTERED</text><text fill="#eeeeee" stroke="none" font-family="Arial" font-size="24px" font-style="normal" font-weight="normal" text-decoration="none" x="800" y="420">UNREGISTERED</text><text fill="#eeeeee" stroke="none" font-family="Arial" font-size="24px" font-style="normal" font-weight="normal" text-decoration="none" x="1000" y="0">UNREGISTERED</text><text fill="#eeeeee" stroke="none" font-family="Arial" font-size="24px" font-style="normal" font-weight="normal" text-decoration="none" x="1000" y="30">UNREGISTERED</text><text fill="#eeeeee" stroke="none" font-family="Arial" font-size="24px" font-style="normal" font-weight="normal" text-decoration="none" x="1000" y="60">UNREGISTERED</text><text fill="#eeeeee" stroke="none" font-family="Arial" font-size="24px" font-style="normal" font-weight="normal" text-decoration="none" x="1000" y="90">UNREGISTERED</text><text fill="#eeeeee" stroke="none" font-family="Arial" font-size="24px" font-style="normal" font-weight="normal" text-decoration="none" x="1000" y="120">UNREGISTERED</text><text fill="#eeeeee" stroke="none" font-family="Arial" font-size="24px" font-style="normal" font-weight="normal" text-decoration="none" x="1000" y="150">UNREGISTERED</text><text fill="#eeeeee" stroke="none" font-family="Arial" font-size="24px" font-style="normal" font-weight="normal" text-decoration="none" x="1000" y="180">UNREGISTERED</text><text fill="#eeeeee" stroke="none" font-family="Arial" font-size="24px" font-style="normal" font-weight="normal" text-decoration="none" x="1000" y="210">UNREGISTERED</text><text fill="#eeeeee" stroke="none" font-family="Arial" font-size="24px" font-style="normal" font-weight="normal" text-decoration="none" x="1000" y="240">UNREGISTERED</text><text fill="#eeeeee" stroke="none" font-family="Arial" font-size="24px" font-style="normal" font-weight="normal" text-decoration="none" x="1000" y="270">UNREGISTERED</text><text fill="#eeeeee" stroke="none" font-family="Arial" font-size="24px" font-style="normal" font-weight="normal" text-decoration="none" x="1000" y="300">UNREGISTERED</text><text fill="#eeeeee" stroke="none" font-family="Arial" font-size="24px" font-style="normal" font-weight="normal" text-decoration="none" x="1000" y="330">UNREGISTERED</text><text fill="#eeeeee" stroke="none" font-family="Arial" font-size="24px" font-style="normal" font-weight="normal" text-decoration="none" x="1000" y="360">UNREGISTERED</text><text fill="#eeeeee" stroke="none" font-family="Arial" font-size="24px" font-style="normal" font-weight="normal" text-decoration="none" x="1000" y="390">UNREGISTERED</text><text fill="#eeeeee" stroke="none" font-family="Arial" font-size="24px" font-style="normal" font-weight="normal" text-decoration="none" x="1000" y="420">UNREGISTERED</text><g transform="translate(-294,-54) scale(1,1)"><rect fill="#C0C0C0" stroke="none" x="687" y="127" width="57.40087890625" height="44" opacity="0.2"/></g><g transform="translate(-294,-54) scale(1,1)"><rect fill="#ffffff" stroke="none" x="680" y="120" width="57.40087890625" height="44"/></g><g transform="translate(-294,-54) scale(1,1)"><path fill="none" stroke="#000000" d="M 680 120 L 737.40087890625 120 L 737.40087890625 164 L 680 164 L 680 120 Z Z" stroke-miterlimit="10"/></g><g transform="translate(-294,-54) scale(1,1)"><path fill="none" stroke="#000000" d="M 680 145 L 737.40087890625 145" stroke-miterlimit="10"/></g><g transform="translate(-294,-54) scale(1,1)"><path fill="none" stroke="#000000" d="M 680 155 L 737.40087890625 155" stroke-miterlimit="10"/></g><g transform="translate(-294,-54) scale(1,1)"><g><path fill="none" stroke="none"/><text fill="#000000" stroke="none" font-family="Arial" font-size="13px" font-style="normal" font-weight="bold" text-decoration="none" x="686.302734375" y="139.5">Usuario</text></g></g><g transform="translate(-294,-54) scale(1,1)"><rect fill="#C0C0C0" stroke="none" x="311" y="335" width="151.30810546875" height="44" opacity="0.2"/></g><g transform="translate(-294,-54) scale(1,1)"><rect fill="#ffffff" stroke="none" x="304" y="328" width="151.30810546875" height="44"/></g><g transform="translate(-294,-54) scale(1,1)"><path fill="none" stroke="#000000" d="M 304 328 L 455.30810546875 328 L 455.30810546875 372 L 304 372 L 304 328 Z Z" stroke-miterlimit="10"/></g><g transform="translate(-294,-54) scale(1,1)"><path fill="none" stroke="#000000" d="M 304 353 L 455.30810546875 353" stroke-miterlimit="10"/></g><g transform="translate(-294,-54) scale(1,1)"><path fill="none" stroke="#000000" d="M 304 363 L 455.30810546875 363" stroke-miterlimit="10"/></g><g transform="translate(-294,-54) scale(1,1)"><g><path fill="none" stroke="none"/><text fill="#000000" stroke="none" font-family="Arial" font-size="13px" font-style="normal" font-weight="bold" text-decoration="none" x="314.63818359375" y="347.5">Familiar Administrador</text></g></g><g transform="translate(-294,-54) scale(1,1)"><rect fill="#C0C0C0" stroke="none" x="551" y="191" width="58.8544921875" height="44" opacity="0.2"/></g><g transform="translate(-294,-54) scale(1,1)"><rect fill="#ffffff" stroke="none" x="544" y="184" width="58.8544921875" height="44"/></g><g transform="translate(-294,-54) scale(1,1)"><path fill="none" stroke="#000000" d="M 544 184 L 602.8544921875 184 L 602.8544921875 228 L 544 228 L 544 184 Z Z" stroke-miterlimit="10"/></g><g transform="translate(-294,-54) scale(1,1)"><path fill="none" stroke="#000000" d="M 544 209 L 602.8544921875 209" stroke-miterlimit="10"/></g><g transform="translate(-294,-54) scale(1,1)"><path fill="none" stroke="#000000" d="M 544 219 L 602.8544921875 219" stroke-miterlimit="10"/></g><g transform="translate(-294,-54) scale(1,1)"><g><path fill="none" stroke="none"/><text fill="#000000" stroke="none" font-family="Arial" font-size="13px" font-style="normal" font-weight="bold" text-decoration="none" x="550.3154296875" y="203.5">Familiar</text></g></g><g transform="translate(-294,-54) scale(1,1)"><path fill="none" stroke="#000000" d="M 573 184 L 573 136 L 680 136" stroke-miterlimit="10"/></g><g transform="translate(-294,-54) scale(1,1)"><path fill="#FFFFFF" stroke="none" d="M 659.6746502847517 144.41903551203197 L 680 136 L 659.6746502847517 127.58096448796803"/></g><g transform="translate(-294,-54) scale(1,1)"><path fill="none" stroke="#000000" d="M 659.6746502847517 144.41903551203197 L 680 136 L 659.6746502847517 127.58096448796803 L 659.6746502847517 144.41903551203197" stroke-miterlimit="10"/></g><g transform="translate(-294,-54) scale(1,1)"><rect fill="#C0C0C0" stroke="none" x="815" y="351" width="80.49365234375" height="44" opacity="0.2"/></g><g transform="translate(-294,-54) scale(1,1)"><rect fill="#ffffff" stroke="none" x="808" y="344" width="80.49365234375" height="44"/></g><g transform="translate(-294,-54) scale(1,1)"><path fill="none" stroke="#000000" d="M 808 344 L 888.49365234375 344 L 888.49365234375 388 L 808 388 L 808 344 Z Z" stroke-miterlimit="10"/></g><g transform="translate(-294,-54) scale(1,1)"><path fill="none" stroke="#000000" d="M 808 369 L 888.49365234375 369" stroke-miterlimit="10"/></g><g transform="translate(-294,-54) scale(1,1)"><path fill="none" stroke="#000000" d="M 808 379 L 888.49365234375 379" stroke-miterlimit="10"/></g><g transform="translate(-294,-54) scale(1,1)"><g><path fill="none" stroke="none"/><text fill="#000000" stroke="none" font-family="Arial" font-size="13px" font-style="normal" font-weight="bold" text-decoration="none" x="815.004150390625" y="363.5">Comunidad</text></g></g><g transform="translate(-294,-54) scale(1,1)"><rect fill="#C0C0C0" stroke="none" x="551" y="351" width="53.79541015625" height="44" opacity="0.2"/></g><g transform="translate(-294,-54) scale(1,1)"><rect fill="#ffffff" stroke="none" x="544" y="344" width="53.79541015625" height="44"/></g><g transform="translate(-294,-54) scale(1,1)"><path fill="none" stroke="#000000" d="M 544 344 L 597.79541015625 344 L 597.79541015625 388 L 544 388 L 544 344 Z Z" stroke-miterlimit="10"/></g><g transform="translate(-294,-54) scale(1,1)"><path fill="none" stroke="#000000" d="M 544 369 L 597.79541015625 369" stroke-miterlimit="10"/></g><g transform="translate(-294,-54) scale(1,1)"><path fill="none" stroke="#000000" d="M 544 379 L 597.79541015625 379" stroke-miterlimit="10"/></g><g transform="translate(-294,-54) scale(1,1)"><g><path fill="none" stroke="none"/><text fill="#000000" stroke="none" font-family="Arial" font-size="13px" font-style="normal" font-weight="bold" text-decoration="none" x="549.950439453125" y="363.5">Familia</text></g></g><g transform="translate(-294,-54) scale(1,1)"><path fill="none" stroke="#000000" d="M 379 372 L 379 440 L 578 440 L 578 388" stroke-miterlimit="10"/></g><g transform="translate(-294,-54) scale(1,1)"><path fill="#FFFFFF" stroke="none" d="M 582.209517756016 398.16267485762415 L 578 388 L 573.790482243984 398.16267485762415 L 578 410"/></g><g transform="translate(-294,-54) scale(1,1)"><path fill="none" stroke="#000000" d="M 582.209517756016 398.16267485762415 L 578 388 L 573.790482243984 398.16267485762415 L 578 410 L 582.209517756016 398.16267485762415" stroke-miterlimit="10"/></g><g transform="translate(-294,-54) scale(1,1)"><g><path fill="none" stroke="none"/><text fill="#000000" stroke="none" font-family="Arial" font-size="13px" font-style="normal" font-weight="normal" text-decoration="none" x="444.5" y="431.5">+Pertenece</text></g></g><g transform="translate(-294,-54) scale(1,1)"><g><path fill="none" stroke="none"/><text fill="#000000" stroke="none" font-family="Arial" font-size="13px" font-style="normal" font-weight="normal" text-decoration="none" x="356.5" y="399.5">1..*</text></g></g><g transform="translate(-294,-54) scale(1,1)"><g><path fill="none" stroke="none"/><text fill="#000000" stroke="none" font-family="Arial" font-size="13px" font-style="normal" font-weight="normal" text-decoration="none" x="580.5" y="415.5">1..*</text></g></g><g transform="translate(-294,-54) scale(1,1)"><path fill="none" stroke="#000000" d="M 576 228 L 576 248 L 578 248 L 578 344" stroke-miterlimit="10"/></g><g transform="translate(-294,-54) scale(1,1)"><path fill="#FFFFFF" stroke="none" d="M 573.790482243984 333.83732514237585 L 578 344 L 582.209517756016 333.83732514237585 L 578 322"/></g><g transform="translate(-294,-54) scale(1,1)"><path fill="none" stroke="#000000" d="M 573.790482243984 333.83732514237585 L 578 344 L 582.209517756016 333.83732514237585 L 578 322 L 573.790482243984 333.83732514237585" stroke-miterlimit="10"/></g><g transform="translate(-294,-54) scale(1,1)"><g><path fill="none" stroke="none"/><text fill="#000000" stroke="none" font-family="Arial" font-size="13px" font-style="normal" font-weight="normal" text-decoration="none" x="542.5" y="276.5">+Pertenece</text></g></g><g transform="translate(-294,-54) scale(1,1)"><g><path fill="none" stroke="none"/><text fill="#000000" stroke="none" font-family="Arial" font-size="13px" font-style="normal" font-weight="normal" text-decoration="none" x="542.5" y="243.5">0..*</text></g></g><g transform="translate(-294,-54) scale(1,1)"><g><path fill="none" stroke="none"/><text fill="#000000" stroke="none" font-family="Arial" font-size="13px" font-style="normal" font-weight="normal" text-decoration="none" x="555.5" y="328.5">0..*</text></g></g><g transform="translate(-294,-54) scale(1,1)"><path fill="none" stroke="#000000" d="M 379 328 L 379 288 L 384 288 L 384 208 L 544 208" stroke-miterlimit="10"/></g><g transform="translate(-294,-54) scale(1,1)"><path fill="#FFFFFF" stroke="none" d="M 523.6746502847517 216.41903551203197 L 544 208 L 523.6746502847517 199.58096448796803"/></g><g transform="translate(-294,-54) scale(1,1)"><path fill="none" stroke="#000000" d="M 523.6746502847517 216.41903551203197 L 544 208 L 523.6746502847517 199.58096448796803 L 523.6746502847517 216.41903551203197" stroke-miterlimit="10"/></g><g transform="translate(-294,-54) scale(1,1)"><rect fill="#C0C0C0" stroke="none" x="863" y="207" width="76.16455078125" height="44" opacity="0.2"/></g><g transform="translate(-294,-54) scale(1,1)"><rect fill="#ffffff" stroke="none" x="856" y="200" width="76.16455078125" height="44"/></g><g transform="translate(-294,-54) scale(1,1)"><path fill="none" stroke="#000000" d="M 856 200 L 932.16455078125 200 L 932.16455078125 244 L 856 244 L 856 200 Z Z" stroke-miterlimit="10"/></g><g transform="translate(-294,-54) scale(1,1)"><path fill="none" stroke="#000000" d="M 856 225 L 932.16455078125 225" stroke-miterlimit="10"/></g><g transform="translate(-294,-54) scale(1,1)"><path fill="none" stroke="#000000" d="M 856 235 L 932.16455078125 235" stroke-miterlimit="10"/></g><g transform="translate(-294,-54) scale(1,1)"><g><path fill="none" stroke="none"/><text fill="#000000" stroke="none" font-family="Arial" font-size="13px" font-style="normal" font-weight="bold" text-decoration="none" x="862.63916015625" y="219.5">Ciudadano</text></g></g><g transform="translate(-294,-54) scale(1,1)"><path fill="none" stroke="#000000" d="M 894 200 L 894 136 L 737 136" stroke-miterlimit="10"/></g><g transform="translate(-294,-54) scale(1,1)"><path fill="#FFFFFF" stroke="none" d="M 757.3253497152483 127.58096448796803 L 737 136 L 757.3253497152483 144.41903551203197"/></g><g transform="translate(-294,-54) scale(1,1)"><path fill="none" stroke="#000000" d="M 757.3253497152483 127.58096448796803 L 737 136 L 757.3253497152483 144.41903551203197 L 757.3253497152483 127.58096448796803" stroke-miterlimit="10"/></g><g transform="translate(-294,-54) scale(1,1)"><path fill="none" stroke="#000000" d="M 894 244 L 894 280 L 864 280 L 864 344" stroke-miterlimit="10"/></g><g transform="translate(-294,-54) scale(1,1)"><path fill="#FFFFFF" stroke="none" d="M 859.790482243984 333.83732514237585 L 864 344 L 868.209517756016 333.83732514237585 L 864 322"/></g><g transform="translate(-294,-54) scale(1,1)"><path fill="none" stroke="#000000" d="M 859.790482243984 333.83732514237585 L 864 344 L 868.209517756016 333.83732514237585 L 864 322 L 859.790482243984 333.83732514237585" stroke-miterlimit="10"/></g><g transform="translate(-294,-54) scale(1,1)"><g><path fill="none" stroke="none"/><text fill="#000000" stroke="none" font-family="Arial" font-size="13px" font-style="normal" font-weight="normal" text-decoration="none" x="870.5" y="299.5">+Pertenece</text></g></g><g transform="translate(-294,-54) scale(1,1)"><g><path fill="none" stroke="none"/><text fill="#000000" stroke="none" font-family="Arial" font-size="13px" font-style="normal" font-weight="normal" text-decoration="none" x="871.5" y="271.5">0..*</text></g></g><g transform="translate(-294,-54) scale(1,1)"><g><path fill="none" stroke="none"/><text fill="#000000" stroke="none" font-family="Arial" font-size="13px" font-style="normal" font-weight="normal" text-decoration="none" x="841.5" y="328.5">0..*</text></g></g><g transform="translate(-294,-54) scale(1,1)"><rect fill="#C0C0C0" stroke="none" x="1263" y="447" width="168.6181640625" height="44" opacity="0.2"/></g><g transform="translate(-294,-54) scale(1,1)"><rect fill="#ffffff" stroke="none" x="1256" y="440" width="168.6181640625" height="44"/></g><g transform="translate(-294,-54) scale(1,1)"><path fill="none" stroke="#000000" d="M 1256 440 L 1424.6181640625 440 L 1424.6181640625 484 L 1256 484 L 1256 440 Z Z" stroke-miterlimit="10"/></g><g transform="translate(-294,-54) scale(1,1)"><path fill="none" stroke="#000000" d="M 1256 465 L 1424.6181640625 465" stroke-miterlimit="10"/></g><g transform="translate(-294,-54) scale(1,1)"><path fill="none" stroke="#000000" d="M 1256 475 L 1424.6181640625 475" stroke-miterlimit="10"/></g><g transform="translate(-294,-54) scale(1,1)"><g><path fill="none" stroke="none"/><text fill="#000000" stroke="none" font-family="Arial" font-size="13px" font-style="normal" font-weight="bold" text-decoration="none" x="1266.9619140625" y="459.5">Ciudadano Administrador</text></g></g><g transform="translate(-294,-54) scale(1,1)"><path fill="none" stroke="#000000" d="M 1340 440 L 1340 64 L 920 64 L 920 200" stroke-miterlimit="10"/></g><g transform="translate(-294,-54) scale(1,1)"><path fill="#FFFFFF" stroke="none" d="M 911.580964487968 179.6746502847517 L 920 200 L 928.419035512032 179.6746502847517"/></g><g transform="translate(-294,-54) scale(1,1)"><path fill="none" stroke="#000000" d="M 911.580964487968 179.6746502847517 L 920 200 L 928.419035512032 179.6746502847517 L 911.580964487968 179.6746502847517" stroke-miterlimit="10"/></g><g transform="translate(-294,-54) scale(1,1)"><path fill="none" stroke="#000000" d="M 1256 448 L 848 448 L 848 388" stroke-miterlimit="10"/></g><g transform="translate(-294,-54) scale(1,1)"><path fill="#FFFFFF" stroke="none" d="M 852.209517756016 398.16267485762415 L 848 388 L 843.790482243984 398.16267485762415 L 848 410"/></g><g transform="translate(-294,-54) scale(1,1)"><path fill="none" stroke="#000000" d="M 852.209517756016 398.16267485762415 L 848 388 L 843.790482243984 398.16267485762415 L 848 410 L 852.209517756016 398.16267485762415" stroke-miterlimit="10"/></g><g transform="translate(-294,-54) scale(1,1)"><g><path fill="none" stroke="none"/><text fill="#000000" stroke="none" font-family="Arial" font-size="13px" font-style="normal" font-weight="normal" text-decoration="none" x="757.5" y="438.5">+Pertenece</text></g></g><g transform="translate(-294,-54) scale(1,1)"><g><path fill="none" stroke="none"/><text fill="#000000" stroke="none" font-family="Arial" font-size="13px" font-style="normal" font-weight="normal" text-decoration="none" x="1224.5" y="441.5">1..*</text></g></g><g transform="translate(-294,-54) scale(1,1)"><g><path fill="none" stroke="none"/><text fill="#000000" stroke="none" font-family="Arial" font-size="13px" font-style="normal" font-weight="normal" text-decoration="none" x="850.5" y="415.5">1..*</text></g></g><g transform="translate(-294,-54) scale(1,1)"><rect fill="#C0C0C0" stroke="none" x="431" y="247" width="50.919921875" height="44" opacity="0.2"/></g><g transform="translate(-294,-54) scale(1,1)"><rect fill="#ffffff" stroke="none" x="424" y="240" width="50.919921875" height="44"/></g><g transform="translate(-294,-54) scale(1,1)"><path fill="none" stroke="#000000" d="M 424 240 L 474.919921875 240 L 474.919921875 284 L 424 284 L 424 240 Z Z" stroke-miterlimit="10"/></g><g transform="translate(-294,-54) scale(1,1)"><path fill="none" stroke="#000000" d="M 424 265 L 474.919921875 265" stroke-miterlimit="10"/></g><g transform="translate(-294,-54) scale(1,1)"><path fill="none" stroke="#000000" d="M 424 275 L 474.919921875 275" stroke-miterlimit="10"/></g><g transform="translate(-294,-54) scale(1,1)"><g><path fill="none" stroke="none"/><text fill="#000000" stroke="none" font-family="Arial" font-size="13px" font-style="normal" font-weight="bold" text-decoration="none" x="436.8154296875" y="259.5">Sitio</text></g></g><g transform="translate(-294,-54) scale(1,1)"><path fill="none" stroke="#000000" d="M 476 285 L 543 343" stroke-miterlimit="10"/></g><g transform="translate(-294,-54) scale(1,1)"><g><path fill="none" stroke="none"/><text fill="#000000" stroke="none" font-family="Arial" font-size="13px" font-style="normal" font-weight="normal" text-decoration="none" x="495.5" y="300.5">+Registra</text></g></g><g transform="translate(-294,-54) scale(1,1)"><g><path fill="none" stroke="none"/><text fill="#000000" stroke="none" font-family="Arial" font-size="13px" font-style="normal" font-weight="normal" text-decoration="none" x="474.58544921875" y="314.5">0..*</text></g></g><g transform="translate(-294,-54) scale(1,1)"><g><path fill="none" stroke="none"/><text fill="#000000" stroke="none" font-family="Arial" font-size="13px" font-style="normal" font-weight="normal" text-decoration="none" x="514.5" y="344.5">1</text></g></g><g transform="translate(-294,-54) scale(1,1)"><rect fill="#C0C0C0" stroke="none" x="415" y="79" width="62.47265625" height="44" opacity="0.2"/></g><g transform="translate(-294,-54) scale(1,1)"><rect fill="#ffffff" stroke="none" x="408" y="72" width="62.47265625" height="44"/></g><g transform="translate(-294,-54) scale(1,1)"><path fill="none" stroke="#000000" d="M 408 72 L 470.47265625 72 L 470.47265625 116 L 408 116 L 408 72 Z Z" stroke-miterlimit="10"/></g><g transform="translate(-294,-54) scale(1,1)"><path fill="none" stroke="#000000" d="M 408 97 L 470.47265625 97" stroke-miterlimit="10"/></g><g transform="translate(-294,-54) scale(1,1)"><path fill="none" stroke="#000000" d="M 408 107 L 470.47265625 107" stroke-miterlimit="10"/></g><g transform="translate(-294,-54) scale(1,1)"><g><path fill="none" stroke="none"/><text fill="#000000" stroke="none" font-family="Arial" font-size="13px" font-style="normal" font-weight="bold" text-decoration="none" x="414.191650390625" y="91.5">Trayecto</text></g></g><g transform="translate(-294,-54) scale(1,1)"><path fill="none" stroke="#000000" d="M 467 117 L 545 183" stroke-miterlimit="10"/></g><g transform="translate(-294,-54) scale(1,1)"><g><path fill="none" stroke="none"/><text fill="#000000" stroke="none" font-family="Arial" font-size="13px" font-style="normal" font-weight="normal" text-decoration="none" x="496.5" y="144.5">+Hace</text></g></g><g transform="translate(-294,-54) scale(1,1)"><g><path fill="none" stroke="none"/><text fill="#000000" stroke="none" font-family="Arial" font-size="13px" font-style="normal" font-weight="normal" text-decoration="none" x="465.5" y="146.5">0..*</text></g></g><g transform="translate(-294,-54) scale(1,1)"><g><path fill="none" stroke="none"/><text fill="#000000" stroke="none" font-family="Arial" font-size="13px" font-style="normal" font-weight="normal" text-decoration="none" x="516.5" y="184.5">1</text></g></g><g transform="translate(-294,-54) scale(1,1)"><rect fill="#C0C0C0" stroke="none" x="687" y="255" width="50.919921875" height="44" opacity="0.2"/></g><g transform="translate(-294,-54) scale(1,1)"><rect fill="#ffffff" stroke="none" x="680" y="248" width="50.919921875" height="44"/></g><g transform="translate(-294,-54) scale(1,1)"><path fill="none" stroke="#000000" d="M 680 248 L 730.919921875 248 L 730.919921875 292 L 680 292 L 680 248 Z Z" stroke-miterlimit="10"/></g><g transform="translate(-294,-54) scale(1,1)"><path fill="none" stroke="#000000" d="M 680 273 L 730.919921875 273" stroke-miterlimit="10"/></g><g transform="translate(-294,-54) scale(1,1)"><path fill="none" stroke="#000000" d="M 680 283 L 730.919921875 283" stroke-miterlimit="10"/></g><g transform="translate(-294,-54) scale(1,1)"><g><path fill="none" stroke="none"/><text fill="#000000" stroke="none" font-family="Arial" font-size="13px" font-style="normal" font-weight="bold" text-decoration="none" x="688.47998046875" y="267.5">Alerta</text></g></g><g transform="translate(-294,-54) scale(1,1)"><path fill="none" stroke="#000000" d="M 679 288 L 599 346" stroke-miterlimit="10"/></g><g transform="translate(-294,-54) scale(1,1)"><g><path fill="none" stroke="none"/><text fill="#000000" stroke="none" font-family="Arial" font-size="13px" font-style="normal" font-weight="normal" text-decoration="none" x="614.5" y="347.5">+Es registrada</text></g></g><g transform="translate(-294,-54) scale(1,1)"><g><path fill="none" stroke="none"/><text fill="#000000" stroke="none" font-family="Arial" font-size="13px" font-style="normal" font-weight="normal" text-decoration="none" x="644.5" y="296.5">0..*</text></g></g><g transform="translate(-294,-54) scale(1,1)"><g><path fill="none" stroke="none"/><text fill="#000000" stroke="none" font-family="Arial" font-size="13px" font-style="normal" font-weight="normal" text-decoration="none" x="605.5" y="329.5">1</text></g></g><g transform="translate(-294,-54) scale(1,1)"><path fill="none" stroke="#000000" d="M 679 257 L 604 221" stroke-miterlimit="10"/></g><g transform="translate(-294,-54) scale(1,1)"><g><path fill="none" stroke="none"/><text fill="#000000" stroke="none" font-family="Arial" font-size="13px" font-style="normal" font-weight="normal" text-decoration="none" x="616.5" y="258.5">+Crea</text></g></g><g transform="translate(-294,-54) scale(1,1)"><g><path fill="none" stroke="none"/><text fill="#000000" stroke="none" font-family="Arial" font-size="13px" font-style="normal" font-weight="normal" text-decoration="none" x="654.5" y="242.5">0..*</text></g></g><g transform="translate(-294,-54) scale(1,1)"><g><path fill="none" stroke="none"/><text fill="#000000" stroke="none" font-family="Arial" font-size="13px" font-style="normal" font-weight="normal" text-decoration="none" x="624.5" y="225.5">1</text></g></g><g transform="translate(-294,-54) scale(1,1)"><path fill="none" stroke="#000000" d="M 732 263 L 855 232" stroke-miterlimit="10"/></g><g transform="translate(-294,-54) scale(1,1)"><g><path fill="none" stroke="none"/><text fill="#000000" stroke="none" font-family="Arial" font-size="13px" font-style="normal" font-weight="normal" text-decoration="none" x="771.5" y="238.5">+Crea</text></g></g><g transform="translate(-294,-54) scale(1,1)"><path fill="none" stroke="#000000" d="M 732 288 L 814 343" stroke-miterlimit="10"/></g><g transform="translate(-294,-54) scale(1,1)"><g><path fill="none" stroke="none"/><text fill="#000000" stroke="none" font-family="Arial" font-size="13px" font-style="normal" font-weight="normal" text-decoration="none" x="759.5" y="311.5">+Es registrada</text></g></g><g transform="translate(-294,-54) scale(1,1)"><rect fill="#C0C0C0" stroke="none" x="1047" y="303" width="98.08935546875" height="44" opacity="0.2"/></g><g transform="translate(-294,-54) scale(1,1)"><rect fill="#ffffff" stroke="none" x="1040" y="296" width="98.08935546875" height="44"/></g><g transform="translate(-294,-54) scale(1,1)"><path fill="none" stroke="#000000" d="M 1040 296 L 1138.08935546875 296 L 1138.08935546875 340 L 1040 340 L 1040 296 Z Z" stroke-miterlimit="10"/></g><g transform="translate(-294,-54) scale(1,1)"><path fill="none" stroke="#000000" d="M 1040 321 L 1138.08935546875 321" stroke-miterlimit="10"/></g><g transform="translate(-294,-54) scale(1,1)"><path fill="none" stroke="#000000" d="M 1040 331 L 1138.08935546875 331" stroke-miterlimit="10"/></g><g transform="translate(-294,-54) scale(1,1)"><g><path fill="none" stroke="none"/><text fill="#000000" stroke="none" font-family="Arial" font-size="13px" font-style="normal" font-weight="bold" text-decoration="none" x="1048.089599609375" y="315.5">Vulnerabilidad</text></g></g><g transform="translate(-294,-54) scale(1,1)"><path fill="none" stroke="#000000" d="M 933 241 L 1042 295" stroke-miterlimit="10"/></g><g transform="translate(-294,-54) scale(1,1)"><g><path fill="none" stroke="none"/><text fill="#000000" stroke="none" font-family="Arial" font-size="13px" font-style="normal" font-weight="normal" text-decoration="none" x="975.5" y="260.5">+Crea</text></g></g><g transform="translate(-294,-54) scale(1,1)"><g><path fill="none" stroke="none"/><text fill="#000000" stroke="none" font-family="Arial" font-size="13px" font-style="normal" font-weight="normal" text-decoration="none" x="942.5" y="267.5">1</text></g></g><g transform="translate(-294,-54) scale(1,1)"><g><path fill="none" stroke="none"/><text fill="#000000" stroke="none" font-family="Arial" font-size="13px" font-style="normal" font-weight="normal" text-decoration="none" x="1007.5" y="302.5">0..*</text></g></g><g transform="translate(-294,-54) scale(1,1)"><path fill="none" stroke="#000000" d="M 1039 328 L 889 358" stroke-miterlimit="10"/></g><g transform="translate(-294,-54) scale(1,1)"><g><path fill="none" stroke="none"/><text fill="#000000" stroke="none" font-family="Arial" font-size="13px" font-style="normal" font-weight="normal" text-decoration="none" x="923.5" y="363.5">+Es registrada</text></g></g><g transform="translate(-294,-54) scale(1,1)"><g><path fill="none" stroke="none"/><text fill="#000000" stroke="none" font-family="Arial" font-size="13px" font-style="normal" font-weight="normal" text-decoration="none" x="1005.5" y="325.5">0..*</text></g></g><g transform="translate(-294,-54) scale(1,1)"><g><path fill="none" stroke="none"/><text fill="#000000" stroke="none" font-family="Arial" font-size="13px" font-style="normal" font-weight="normal" text-decoration="none" x="903.5" y="347.5">1</text></g></g><g transform="translate(-294,-54) scale(1,1)"><path fill="none" stroke="#000000" d="M 933 199 L 1056 128 L 1231 107" stroke-miterlimit="10"/></g><g transform="translate(-294,-54) scale(1,1)"><g><path fill="none" stroke="none"/><text fill="#000000" stroke="none" font-family="Arial" font-size="13px" font-style="normal" font-weight="normal" text-decoration="none" x="1037.5" y="119.5">+Vota</text></g></g><g transform="translate(-294,-54) scale(1,1)"><g><path fill="none" stroke="none"/><text fill="#000000" stroke="none" font-family="Arial" font-size="13px" font-style="normal" font-weight="normal" text-decoration="none" x="947.5" y="205.5">0..*</text></g></g><g transform="translate(-294,-54) scale(1,1)"><g><path fill="none" stroke="none"/><text fill="#000000" stroke="none" font-family="Arial" font-size="13px" font-style="normal" font-weight="normal" text-decoration="none" x="1206.5" y="127.5">1</text></g></g><g transform="translate(-294,-54) scale(1,1)"><rect fill="#C0C0C0" stroke="none" x="1239" y="87" width="81.22998046875" height="44" opacity="0.2"/></g><g transform="translate(-294,-54) scale(1,1)"><rect fill="#ffffff" stroke="none" x="1232" y="80" width="81.22998046875" height="44"/></g><g transform="translate(-294,-54) scale(1,1)"><path fill="none" stroke="#000000" d="M 1232 80 L 1313.22998046875 80 L 1313.22998046875 124 L 1232 124 L 1232 80 Z Z" stroke-miterlimit="10"/></g><g transform="translate(-294,-54) scale(1,1)"><path fill="none" stroke="#000000" d="M 1232 105 L 1313.22998046875 105" stroke-miterlimit="10"/></g><g transform="translate(-294,-54) scale(1,1)"><path fill="none" stroke="#000000" d="M 1232 115 L 1313.22998046875 115" stroke-miterlimit="10"/></g><g transform="translate(-294,-54) scale(1,1)"><g><path fill="none" stroke="none"/><text fill="#000000" stroke="none" font-family="Arial" font-size="13px" font-style="normal" font-weight="bold" text-decoration="none" x="1239.016845703125" y="99.5">Comentario</text></g></g><g transform="translate(-294,-54) scale(1,1)"><rect fill="#C0C0C0" stroke="none" x="1175" y="199" width="71.12451171875" height="44" opacity="0.2"/></g><g transform="translate(-294,-54) scale(1,1)"><rect fill="#ffffff" stroke="none" x="1168" y="192" width="71.12451171875" height="44"/></g><g transform="translate(-294,-54) scale(1,1)"><path fill="none" stroke="#000000" d="M 1168 192 L 1239.12451171875 192 L 1239.12451171875 236 L 1168 236 L 1168 192 Z Z" stroke-miterlimit="10"/></g><g transform="translate(-294,-54) scale(1,1)"><path fill="none" stroke="#000000" d="M 1168 217 L 1239.12451171875 217" stroke-miterlimit="10"/></g><g transform="translate(-294,-54) scale(1,1)"><path fill="none" stroke="#000000" d="M 1168 227 L 1239.12451171875 227" stroke-miterlimit="10"/></g><g transform="translate(-294,-54) scale(1,1)"><g><path fill="none" stroke="none"/><text fill="#000000" stroke="none" font-family="Arial" font-size="13px" font-style="normal" font-weight="bold" text-decoration="none" x="1175.385009765625" y="211.5">Discusión</text></g></g><g transform="translate(-294,-54) scale(1,1)"><path fill="none" stroke="#000000" d="M 1258 125 L 1217 191" stroke-miterlimit="10"/></g><g transform="translate(-294,-54) scale(1,1)"><path fill="#000000" stroke="none" d="M 1218.7869347747394 180.14611294923208 L 1217 191 L 1225.9384108325871 184.5886965609254 L 1228.6090304308104 172.31229247723203"/></g><g transform="translate(-294,-54) scale(1,1)"><path fill="none" stroke="#000000" d="M 1218.7869347747394 180.14611294923208 L 1217 191 L 1225.9384108325871 184.5886965609254 L 1228.6090304308104 172.31229247723203 L 1218.7869347747394 180.14611294923208" stroke-miterlimit="10"/></g><g transform="translate(-294,-54) scale(1,1)"><g><path fill="none" stroke="none"/><text fill="#000000" stroke="none" font-family="Arial" font-size="13px" font-style="normal" font-weight="normal" text-decoration="none" x="1245.5" y="164.5">+Pertenece</text></g></g><g transform="translate(-294,-54) scale(1,1)"><g><path fill="none" stroke="none"/><text fill="#000000" stroke="none" font-family="Arial" font-size="13px" font-style="normal" font-weight="normal" text-decoration="none" x="1225.5" y="142.5">0..*</text></g></g><g transform="translate(-294,-54) scale(1,1)"><g><path fill="none" stroke="none"/><text fill="#000000" stroke="none" font-family="Arial" font-size="13px" font-style="normal" font-weight="normal" text-decoration="none" x="1213.5" y="172.5">1</text></g></g><g transform="translate(-294,-54) scale(1,1)"><path fill="none" stroke="#000000" d="M 1178 237 L 1114 295" stroke-miterlimit="10"/></g><g transform="translate(-294,-54) scale(1,1)"><path fill="#FFFFFF" stroke="none" d="M 1118.7036365192382 285.05636869675425 L 1114 295 L 1124.357182403134 291.29476415484606 L 1130.3017129315917 280.2265726557451"/></g><g transform="translate(-294,-54) scale(1,1)"><path fill="none" stroke="#000000" d="M 1118.7036365192382 285.05636869675425 L 1114 295 L 1124.357182403134 291.29476415484606 L 1130.3017129315917 280.2265726557451 L 1118.7036365192382 285.05636869675425" stroke-miterlimit="10"/></g><g transform="translate(-294,-54) scale(1,1)"><g><path fill="none" stroke="none"/><text fill="#000000" stroke="none" font-family="Arial" font-size="13px" font-style="normal" font-weight="normal" text-decoration="none" x="1145.5" y="296.5">+Refiere a</text></g></g><g transform="translate(-294,-54) scale(1,1)"><g><path fill="none" stroke="none"/><text fill="#000000" stroke="none" font-family="Arial" font-size="13px" font-style="normal" font-weight="normal" text-decoration="none" x="1143.5" y="248.5">0..*</text></g></g><g transform="translate(-294,-54) scale(1,1)"><g><path fill="none" stroke="none"/><text fill="#000000" stroke="none" font-family="Arial" font-size="13px" font-style="normal" font-weight="normal" text-decoration="none" x="1117.5" y="277.5">1</text></g></g><g transform="translate(-294,-54) scale(1,1)"><path fill="none" stroke="#000000" d="M 933 221 L 1167 215" stroke-miterlimit="10"/></g><g transform="translate(-294,-54) scale(1,1)"><g><path fill="none" stroke="none"/><text fill="#000000" stroke="none" font-family="Arial" font-size="13px" font-style="normal" font-weight="normal" text-decoration="none" x="1031.5" y="209.5">+Crea</text></g></g></g></svg>