<svg version="1.1" xmlns="http://www.w3.org/2000/svg" xmlns:xlink="http://www.w3.org/1999/xlink" width="532" height="908"><defs/><g><text fill="#eeeeee" stroke="none" font-family="Arial" font-size="24px" font-style="normal" font-weight="normal" text-decoration="none" x="0" y="0">UNREGISTERED</text><text fill="#eeeeee" stroke="none" font-family="Arial" font-size="24px" font-style="normal" font-weight="normal" text-decoration="none" x="0" y="30">UNREGISTERED</text><text fill="#eeeeee" stroke="none" font-family="Arial" font-size="24px" font-style="normal" font-weight="normal" text-decoration="none" x="0" y="60">UNREGISTERED</text><text fill="#eeeeee" stroke="none" font-family="Arial" font-size="24px" font-style="normal" font-weight="normal" text-decoration="none" x="0" y="90">UNREGISTERED</text><text fill="#eeeeee" stroke="none" font-family="Arial" font-size="24px" font-style="normal" font-weight="normal" text-decoration="none" x="0" y="120">UNREGISTERED</text><text fill="#eeeeee" stroke="none" font-family="Arial" font-size="24px" font-style="normal" font-weight="normal" text-decoration="none" x="0" y="150">UNREGISTERED</text><text fill="#eeeeee" stroke="none" font-family="Arial" font-size="24px" font-style="normal" font-weight="normal" text-decoration="none" x="0" y="180">UNREGISTERED</text><text fill="#eeeeee" stroke="none" font-family="Arial" font-size="24px" font-style="normal" font-weight="normal" text-decoration="none" x="0" y="210">UNREGISTERED</text><text fill="#eeeeee" stroke="none" font-family="Arial" font-size="24px" font-style="normal" font-weight="normal" text-decoration="none" x="0" y="240">UNREGISTERED</text><text fill="#eeeeee" stroke="none" font-family="Arial" font-size="24px" font-style="normal" font-weight="normal" text-decoration="none" x="0" y="270">UNREGISTERED</text><text fill="#eeeeee" stroke="none" font-family="Arial" font-size="24px" font-style="normal" font-weight="normal" text-decoration="none" x="0" y="300">UNREGISTERED</text><text fill="#eeeeee" stroke="none" font-family="Arial" font-size="24px" font-style="normal" font-weight="normal" text-decoration="none" x="0" y="330">UNREGISTERED</text><text fill="#eeeeee" stroke="none" font-family="Arial" font-size="24px" font-style="normal" font-weight="normal" text-decoration="none" x="0" y="360">UNREGISTERED</text><text fill="#eeeeee" stroke="none" font-family="Arial" font-size="24px" font-style="normal" font-weight="normal" text-decoration="none" x="0" y="390">UNREGISTERED</text><text fill="#eeeeee" stroke="none" font-family="Arial" font-size="24px" font-style="normal" font-weight="normal" text-decoration="none" x="0" y="420">UNREGISTERED</text><text fill="#eeeeee" stroke="none" font-family="Arial" font-size="24px" font-style="normal" font-weight="normal" text-decoration="none" x="0" y="450">UNREGISTERED</text><text fill="#eeeeee" stroke="none" font-family="Arial" font-size="24px" font-style="normal" font-weight="normal" text-decoration="none" x="0" y="480">UNREGISTERED</text><text fill="#eeeeee" stroke="none" font-family="Arial" font-size="24px" font-style="normal" font-weight="normal" text-decoration="none" x="0" y="510">UNREGISTERED</text><text fill="#eeeeee" stroke="none" font-family="Arial" font-size="24px" font-style="normal" font-weight="normal" text-decoration="none" x="0" y="540">UNREGISTERED</text><text fill="#eeeeee" stroke="none" font-family="Arial" font-size="24px" font-style="normal" font-weight="normal" text-decoration="none" x="0" y="570">UNREGISTERED</text><text fill="#eeeeee" stroke="none" font-family="Arial" font-size="24px" font-style="normal" font-weight="normal" text-decoration="none" x="0" y="600">UNREGISTERED</text><text fill="#eeeeee" stroke="none" font-family="Arial" font-size="24px" font-style="normal" font-weight="normal" text-decoration="none" x="0" y="630">UNREGISTERED</text><text fill="#eeeeee" stroke="none" font-family="Arial" font-size="24px" font-style="normal" font-weight="normal" text-decoration="none" x="0" y="660">UNREGISTERED</text><text fill="#eeeeee" stroke="none" font-family="Arial" font-size="24px" font-style="normal" font-weight="normal" text-decoration="none" x="0" y="690">UNREGISTERED</text><text fill="#eeeeee" stroke="none" font-family="Arial" font-size="24px" font-style="normal" font-weight="normal" text-decoration="none" x="0" y="720">UNREGISTERED</text><text fill="#eeeeee" stroke="none" font-family="Arial" font-size="24px" font-style="normal" font-weight="normal" text-decoration="none" x="0" y="750">UNREGISTERED</text><text fill="#eeeeee" stroke="none" font-family="Arial" font-size="24px" font-style="normal" font-weight="normal" text-decoration="none" x="0" y="780">UNREGISTERED</text><text fill="#eeeeee" stroke="none" font-family="Arial" font-size="24px" font-style="normal" font-weight="normal" text-decoration="none" x="0" y="810">UNREGISTERED</text><text fill="#eeeeee" stroke="none" font-family="Arial" font-size="24px" font-style="normal" font-weight="normal" text-decoration="none" x="0" y="840">UNREGISTERED</text><text fill="#eeeeee" stroke="none" font-family="Arial" font-size="24px" font-style="normal" font-weight="normal" text-decoration="none" x="0" y="870">UNREGISTERED</text><text fill="#eeeeee" stroke="none" font-family="Arial" font-size="24px" font-style="normal" font-weight="normal" text-decoration="none" x="0" y="900">UNREGISTERED</text><text fill="#eeeeee" stroke="none" font-family="Arial" font-size="24px" font-style="normal" font-weight="normal" text-decoration="none" x="200" y="0">UNREGISTERED</text><text fill="#eeeeee" stroke="none" font-family="Arial" font-size="24px" font-style="normal" font-weight="normal" text-decoration="none" x="200" y="30">UNREGISTERED</text><text fill="#eeeeee" stroke="none" font-family="Arial" font-size="24px" font-style="normal" font-weight="normal" text-decoration="none" x="200" y="60">UNREGISTERED</text><text fill="#eeeeee" stroke="none" font-family="Arial" font-size="24px" font-style="normal" font-weight="normal" text-decoration="none" x="200" y="90">UNREGISTERED</text><text fill="#eeeeee" stroke="none" font-family="Arial" font-size="24px" font-style="normal" font-weight="normal" text-decoration="none" x="200" y="120">UNREGISTERED</text><text fill="#eeeeee" stroke="none" font-family="Arial" font-size="24px" font-style="normal" font-weight="normal" text-decoration="none" x="200" y="150">UNREGISTERED</text><text fill="#eeeeee" stroke="none" font-family="Arial" font-size="24px" font-style="normal" font-weight="normal" text-decoration="none" x="200" y="180">UNREGISTERED</text><text fill="#eeeeee" stroke="none" font-family="Arial" font-size="24px" font-style="normal" font-weight="normal" text-decoration="none" x="200" y="210">UNREGISTERED</text><text fill="#eeeeee" stroke="none" font-family="Arial" font-size="24px" font-style="normal" font-weight="normal" text-decoration="none" x="200" y="240">UNREGISTERED</text><text fill="#eeeeee" stroke="none" font-family="Arial" font-size="24px" font-style="normal" font-weight="normal" text-decoration="none" x="200" y="270">UNREGISTERED</text><text fill="#eeeeee" stroke="none" font-family="Arial" font-size="24px" font-style="normal" font-weight="normal" text-decoration="none" x="200" y="300">UNREGISTERED</text><text fill="#eeeeee" stroke="none" font-family="Arial" font-size="24px" font-style="normal" font-weight="normal" text-decoration="none" x="200" y="330">UNREGISTERED</text><text fill="#eeeeee" stroke="none" font-family="Arial" font-size="24px" font-style="normal" font-weight="normal" text-decoration="none" x="200" y="360">UNREGISTERED</text><text fill="#eeeeee" stroke="none" font-family="Arial" font-size="24px" font-style="normal" font-weight="normal" text-decoration="none" x="200" y="390">UNREGISTERED</text><text fill="#eeeeee" stroke="none" font-family="Arial" font-size="24px" font-style="normal" font-weight="normal" text-decoration="none" x="200" y="420">UNREGISTERED</text><text fill="#eeeeee" stroke="none" font-family="Arial" font-size="24px" font-style="normal" font-weight="normal" text-decoration="none" x="200" y="450">UNREGISTERED</text><text fill="#eeeeee" stroke="none" font-family="Arial" font-size="24px" font-style="normal" font-weight="normal" text-decoration="none" x="200" y="480">UNREGISTERED</text><text fill="#eeeeee" stroke="none" font-family="Arial" font-size="24px" font-style="normal" font-weight="normal" text-decoration="none" x="200" y="510">UNREGISTERED</text><text fill="#eeeeee" stroke="none" font-family="Arial" font-size="24px" font-style="normal" font-weight="normal" text-decoration="none" x="200" y="540">UNREGISTERED</text><text fill="#eeeeee" stroke="none" font-family="Arial" font-size="24px" font-style="normal" font-weight="normal" text-decoration="none" x="200" y="570">UNREGISTERED</text><text fill="#eeeeee" stroke="none" font-family="Arial" font-size="24px" font-style="normal" font-weight="normal" text-decoration="none" x="200" y="600">UNREGISTERED</text><text fill="#eeeeee" stroke="none" font-family="Arial" font-size="24px" font-style="normal" font-weight="normal" text-decoration="none" x="200" y="630">UNREGISTERED</text><text fill="#eeeeee" stroke="none" font-family="Arial" font-size="24px" font-style="normal" font-weight="normal" text-decoration="none" x="200" y="660">UNREGISTERED</text><text fill="#eeeeee" stroke="none" font-family="Arial" font-size="24px" font-style="normal" font-weight="normal" text-decoration="none" x="200" y="690">UNREGISTERED</text><text fill="#eeeeee" stroke="none" font-family="Arial" font-size="24px" font-style="normal" font-weight="normal" text-decoration="none" x="200" y="720">UNREGISTERED</text><text fill="#eeeeee" stroke="none" font-family="Arial" font-size="24px" font-style="normal" font-weight="normal" text-decoration="none" x="200" y="750">UNREGISTERED</text><text fill="#eeeeee" stroke="none" font-family="Arial" font-size="24px" font-style="normal" font-weight="normal" text-decoration="none" x="200" y="780">UNREGISTERED</text><text fill="#eeeeee" stroke="none" font-family="Arial" font-size="24px" font-style="normal" font-weight="normal" text-decoration="none" x="200" y="810">UNREGISTERED</text><text fill="#eeeeee" stroke="none" font-family="Arial" font-size="24px" font-style="normal" font-weight="normal" text-decoration="none" x="200" y="840">UNREGISTERED</text><text fill="#eeeeee" stroke="none" font-family="Arial" font-size="24px" font-style="normal" font-weight="normal" text-decoration="none" x="200" y="870">UNREGISTERED</text><text fill="#eeeeee" stroke="none" font-family="Arial" font-size="24px" font-style="normal" font-weight="normal" text-decoration="none" x="200" y="900">UNREGISTERED</text><text fill="#eeeeee" stroke="none" font-family="Arial" font-size="24px" font-style="normal" font-weight="normal" text-decoration="none" x="400" y="0">UNREGISTERED</text><text fill="#eeeeee" stroke="none" font-family="Arial" font-size="24px" font-style="normal" font-weight="normal" text-decoration="none" x="400" y="30">UNREGISTERED</text><text fill="#eeeeee" stroke="none" font-family="Arial" font-size="24px" font-style="normal" font-weight="normal" text-decoration="none" x="400" y="60">UNREGISTERED</text><text fill="#eeeeee" stroke="none" font-family="Arial" font-size="24px" font-style="normal" font-weight="normal" text-decoration="none" x="400" y="90">UNREGISTERED</text><text fill="#eeeeee" stroke="none" font-family="Arial" font-size="24px" font-style="normal" font-weight="normal" text-decoration="none" x="400" y="120">UNREGISTERED</text><text fill="#eeeeee" stroke="none" font-family="Arial" font-size="24px" font-style="normal" font-weight="normal" text-decoration="none" x="400" y="150">UNREGISTERED</text><text fill="#eeeeee" stroke="none" font-family="Arial" font-size="24px" font-style="normal" font-weight="normal" text-decoration="none" x="400" y="180">UNREGISTERED</text><text fill="#eeeeee" stroke="none" font-family="Arial" font-size="24px" font-style="normal" font-weight="normal" text-decoration="none" x="400" y="210">UNREGISTERED</text><text fill="#eeeeee" stroke="none" font-family="Arial" font-size="24px" font-style="normal" font-weight="normal" text-decoration="none" x="400" y="240">UNREGISTERED</text><text fill="#eeeeee" stroke="none" font-family="Arial" font-size="24px" font-style="normal" font-weight="normal" text-decoration="none" x="400" y="270">UNREGISTERED</text><text fill="#eeeeee" stroke="none" font-family="Arial" font-size="24px" font-style="normal" font-weight="normal" text-decoration="none" x="400" y="300">UNREGISTERED</text><text fill="#eeeeee" stroke="none" font-family="Arial" font-size="24px" font-style="normal" font-weight="normal" text-decoration="none" x="400" y="330">UNREGISTERED</text><text fill="#eeeeee" stroke="none" font-family="Arial" font-size="24px" font-style="normal" font-weight="normal" text-decoration="none" x="400" y="360">UNREGISTERED</text><text fill="#eeeeee" stroke="none" font-family="Arial" font-size="24px" font-style="normal" font-weight="normal" text-decoration="none" x="400" y="390">UNREGISTERED</text><text fill="#eeeeee" stroke="none" font-family="Arial" font-size="24px" font-style="normal" font-weight="normal" text-decoration="none" x="400" y="420">UNREGISTERED</text><text fill="#eeeeee" stroke="none" font-family="Arial" font-size="24px" font-style="normal" font-weight="normal" text-decoration="none" x="400" y="450">UNREGISTERED</text><text fill="#eeeeee" stroke="none" font-family="Arial" font-size="24px" font-style="normal" font-weight="normal" text-decoration="none" x="400" y="480">UNREGISTERED</text><text fill="#eeeeee" stroke="none" font-family="Arial" font-size="24px" font-style="normal" font-weight="normal" text-decoration="none" x="400" y="510">UNREGISTERED</text><text fill="#eeeeee" stroke="none" font-family="Arial" font-size="24px" font-style="normal" font-weight="normal" text-decoration="none" x="400" y="540">UNREGISTERED</text><text fill="#eeeeee" stroke="none" font-family="Arial" font-size="24px" font-style="normal" font-weight="normal" text-decoration="none" x="400" y="570">UNREGISTERED</text><text fill="#eeeeee" stroke="none" font-family="Arial" font-size="24px" font-style="normal" font-weight="normal" text-decoration="none" x="400" y="600">UNREGISTERED</text><text fill="#eeeeee" stroke="none" font-family="Arial" font-size="24px" font-style="normal" font-weight="normal" text-decoration="none" x="400" y="630">UNREGISTERED</text><text fill="#eeeeee" stroke="none" font-family="Arial" font-size="24px" font-style="normal" font-weight="normal" text-decoration="none" x="400" y="660">UNREGISTERED</text><text fill="#eeeeee" stroke="none" font-family="Arial" font-size="24px" font-style="normal" font-weight="normal" text-decoration="none" x="400" y="690">UNREGISTERED</text><text fill="#eeeeee" stroke="none" font-family="Arial" font-size="24px" font-style="normal" font-weight="normal" text-decoration="none" x="400" y="720">UNREGISTERED</text><text fill="#eeeeee" stroke="none" font-family="Arial" font-size="24px" font-style="normal" font-weight="normal" text-decoration="none" x="400" y="750">UNREGISTERED</text><text fill="#eeeeee" stroke="none" font-family="Arial" font-size="24px" font-style="normal" font-weight="normal" text-decoration="none" x="400" y="780">UNREGISTERED</text><text fill="#eeeeee" stroke="none" font-family="Arial" font-size="24px" font-style="normal" font-weight="normal" text-decoration="none" x="400" y="810">UNREGISTERED</text><text fill="#eeeeee" stroke="none" font-family="Arial" font-size="24px" font-style="normal" font-weight="normal" text-decoration="none" x="400" y="840">UNREGISTERED</text><text fill="#eeeeee" stroke="none" font-family="Arial" font-size="24px" font-style="normal" font-weight="normal" text-decoration="none" x="400" y="870">UNREGISTERED</text><text fill="#eeeeee" stroke="none" font-family="Arial" font-size="24px" font-style="normal" font-weight="normal" text-decoration="none" x="400" y="900">UNREGISTERED</text><g transform="translate(-374,-14) scale(1,1)"><path fill="none" stroke="#000000" d="M 576 24 L 896 24 L 896 912 L 576 912 L 576 24" stroke-miterlimit="10"/></g><g transform="translate(-374,-14) scale(1,1)"><path fill="#ffffff" stroke="none" d="M 576 24 L 576 46 L 670.75537109375 46 L 681.75537109375 35 L 681.75537109375 24 L 576 24"/></g><g transform="translate(-374,-14) scale(1,1)"><path fill="none" stroke="#000000" d="M 576 24 L 576 46 L 670.75537109375 46 L 681.75537109375 35 L 681.75537109375 24 L 576 24 L 576 24" stroke-miterlimit="10"/></g><g transform="translate(-374,-14) scale(1,1)"><g><path fill="none" stroke="none"/><text fill="#000000" stroke="none" font-family="Arial" font-size="13px" font-style="normal" font-weight="normal" text-decoration="none" x="587" y="41.5">PignusCivitas</text></g></g><g transform="translate(-374,-14) scale(1,1)"><g><path fill="none" stroke="none"/><text fill="#000000" stroke="none" font-family="Arial" font-size="13px" font-style="normal" font-weight="bold" text-decoration="none" x="581" y="41.5"></text></g></g><g transform="translate(-374,-14) scale(1,1)"><path fill="#ffffff" stroke="none" d="M 444.74797336647725 257.68 C 444.74797336647725 252.886167936 448.63381569142274 249 453.42724609375 249 C 458.22067649607726 249 462.10651882102275 252.886167936 462.10651882102275 257.68 C 462.10651882102275 262.473832064 458.22067649607726 266.36 453.42724609375 266.36 C 448.63381569142274 266.36 444.74797336647725 262.473832064 444.74797336647725 257.68 Z"/></g><g transform="translate(-374,-14) scale(1,1)"><path fill="none" stroke="#000000" d="M 444.74797336647725 257.68 C 444.74797336647725 252.886167936 448.63381569142274 249 453.42724609375 249 C 458.22067649607726 249 462.10651882102275 252.886167936 462.10651882102275 257.68 C 462.10651882102275 262.473832064 458.22067649607726 266.36 453.42724609375 266.36 C 448.63381569142274 266.36 444.74797336647725 262.473832064 444.74797336647725 257.68 Z" stroke-miterlimit="10"/></g><g transform="translate(-374,-14) scale(1,1)"><path fill="none" stroke="#000000" d="M 453.42724609375 266.36 L 453.42724609375 283.64" stroke-miterlimit="10"/></g><g transform="translate(-374,-14) scale(1,1)"><path fill="none" stroke="#000000" d="M 444.23742791193183 272.84 L 462.61706427556817 272.84" stroke-miterlimit="10"/></g><g transform="translate(-374,-14) scale(1,1)"><path fill="none" stroke="#000000" d="M 453.42724609375 283.64 L 440.66360973011365 301" stroke-miterlimit="10"/></g><g transform="translate(-374,-14) scale(1,1)"><path fill="none" stroke="#000000" d="M 453.42724609375 283.64 L 466.19088245738635 301" stroke-miterlimit="10"/></g><g transform="translate(-374,-14) scale(1,1)"><g><path fill="none" stroke="none"/><text fill="#000000" stroke="none" font-family="Arial" font-size="13px" font-style="normal" font-weight="bold" text-decoration="none" x="430.3154296875" y="321.5">Familiar</text></g></g><g transform="translate(-374,-14) scale(1,1)"><path fill="#C0C0C0" stroke="none" d="M 631 176 C 631 166.6111584 662.5639216 159 701.5 159 C 740.4360784 159 772 166.6111584 772 176 C 772 185.3888416 740.4360784 193 701.5 193 C 662.5639216 193 631 185.3888416 631 176 Z" opacity="0.2"/></g><g transform="translate(-374,-14) scale(1,1)"><path fill="#ffffff" stroke="none" d="M 624 169 C 624 159.6111584 655.5639216 152 694.5 152 C 733.4360784 152 765 159.6111584 765 169 C 765 178.3888416 733.4360784 186 694.5 186 C 655.5639216 186 624 178.3888416 624 169 Z"/></g><g transform="translate(-374,-14) scale(1,1)"><path fill="none" stroke="#000000" d="M 624 169 C 624 159.6111584 655.5639216 152 694.5 152 C 733.4360784 152 765 159.6111584 765 169 C 765 178.3888416 733.4360784 186 694.5 186 C 655.5639216 186 624 178.3888416 624 169 Z" stroke-miterlimit="10"/></g><g transform="translate(-374,-14) scale(1,1)"><g><path fill="none" stroke="none"/><text fill="#000000" stroke="none" font-family="Arial" font-size="13px" font-style="normal" font-weight="bold" text-decoration="none" x="652.602294921875" y="176">Listar Familias</text></g></g><g transform="translate(-374,-14) scale(1,1)"><path fill="none" stroke="#000000" d="M 484 272 L 657 187" stroke-miterlimit="10"/></g><g transform="translate(-374,-14) scale(1,1)"><path fill="#C0C0C0" stroke="none" d="M 631 232 C 631 222.6111584 666.5933583999999 215 710.5 215 C 754.4066416000001 215 790 222.6111584 790 232 C 790 241.3888416 754.4066416000001 249 710.5 249 C 666.5933583999999 249 631 241.3888416 631 232 Z" opacity="0.2"/></g><g transform="translate(-374,-14) scale(1,1)"><path fill="#ffffff" stroke="none" d="M 624 225 C 624 215.6111584 659.5933583999999 208 703.5 208 C 747.4066416000001 208 783 215.6111584 783 225 C 783 234.3888416 747.4066416000001 242 703.5 242 C 659.5933583999999 242 624 234.3888416 624 225 Z"/></g><g transform="translate(-374,-14) scale(1,1)"><path fill="none" stroke="#000000" d="M 624 225 C 624 215.6111584 659.5933583999999 208 703.5 208 C 747.4066416000001 208 783 215.6111584 783 225 C 783 234.3888416 747.4066416000001 242 703.5 242 C 659.5933583999999 242 624 234.3888416 624 225 Z" stroke-miterlimit="10"/></g><g transform="translate(-374,-14) scale(1,1)"><g><path fill="none" stroke="none"/><text fill="#000000" stroke="none" font-family="Arial" font-size="13px" font-style="normal" font-weight="bold" text-decoration="none" x="655.82275390625" y="232">Listar Familiares</text></g></g><g transform="translate(-374,-14) scale(1,1)"><path fill="none" stroke="#000000" d="M 484 279 L 630 243" stroke-miterlimit="10"/></g><g transform="translate(-374,-14) scale(1,1)"><path fill="#C0C0C0" stroke="none" d="M 647 288 C 647 278.6111584 673.1913392 271 705.5 271 C 737.8086608 271 764 278.6111584 764 288 C 764 297.3888416 737.8086608 305 705.5 305 C 673.1913392 305 647 297.3888416 647 288 Z" opacity="0.2"/></g><g transform="translate(-374,-14) scale(1,1)"><path fill="#ffffff" stroke="none" d="M 640 281 C 640 271.6111584 666.1913392 264 698.5 264 C 730.8086608 264 757 271.6111584 757 281 C 757 290.3888416 730.8086608 298 698.5 298 C 666.1913392 298 640 290.3888416 640 281 Z"/></g><g transform="translate(-374,-14) scale(1,1)"><path fill="none" stroke="#000000" d="M 640 281 C 640 271.6111584 666.1913392 264 698.5 264 C 730.8086608 264 757 271.6111584 757 281 C 757 290.3888416 730.8086608 298 698.5 298 C 666.1913392 298 640 290.3888416 640 281 Z" stroke-miterlimit="10"/></g><g transform="translate(-374,-14) scale(1,1)"><g><path fill="none" stroke="none"/><text fill="#000000" stroke="none" font-family="Arial" font-size="13px" font-style="normal" font-weight="bold" text-decoration="none" x="663.825927734375" y="288">Ver Familiar</text></g></g><g transform="translate(-374,-14) scale(1,1)"><path fill="none" stroke="#000000" d="M 484 286 L 639 282" stroke-miterlimit="10"/></g><g transform="translate(-374,-14) scale(1,1)"><path fill="#C0C0C0" stroke="none" d="M 647 352 C 647 342.6111584 686.8466528 335 736 335 C 785.1533472 335 825 342.6111584 825 352 C 825 361.3888416 785.1533472 369 736 369 C 686.8466528 369 647 361.3888416 647 352 Z" opacity="0.2"/></g><g transform="translate(-374,-14) scale(1,1)"><path fill="#ffffff" stroke="none" d="M 640 345 C 640 335.6111584 679.8466528 328 729 328 C 778.1533472 328 818 335.6111584 818 345 C 818 354.3888416 778.1533472 362 729 362 C 679.8466528 362 640 354.3888416 640 345 Z"/></g><g transform="translate(-374,-14) scale(1,1)"><path fill="none" stroke="#000000" d="M 640 345 C 640 335.6111584 679.8466528 328 729 328 C 778.1533472 328 818 335.6111584 818 345 C 818 354.3888416 778.1533472 362 729 362 C 679.8466528 362 640 354.3888416 640 345 Z" stroke-miterlimit="10"/></g><g transform="translate(-374,-14) scale(1,1)"><g><path fill="none" stroke="none"/><text fill="#000000" stroke="none" font-family="Arial" font-size="13px" font-style="normal" font-weight="bold" text-decoration="none" x="675.53369140625" y="352">Solicitar Ubicación</text></g></g><g transform="translate(-374,-14) scale(1,1)"><path fill="none" stroke="#000000" d="M 484 293 L 643 327" stroke-miterlimit="10"/></g><g transform="translate(-374,-14) scale(1,1)"><path fill="none" stroke="#000000" d="M 720 327 L 707 299" stroke-miterlimit="10" stroke-dasharray="3"/></g><g transform="translate(-374,-14) scale(1,1)"><path fill="none" stroke="#000000" d="M 715.0976876409704 306.4449617103968 L 707 299 L 707.4615469317649 309.99031275395646" stroke-miterlimit="10"/></g><g transform="translate(-374,-14) scale(1,1)"><g><path fill="none" stroke="none"/><text fill="#000000" stroke="none" font-family="Arial" font-size="13px" font-style="normal" font-weight="normal" text-decoration="none" x="718.5" y="311.5">«include»</text></g></g><g transform="translate(-374,-14) scale(1,1)"><path fill="#C0C0C0" stroke="none" d="M 687 416 C 687 406.6111584 718.5639216 399 757.5 399 C 796.4360784 399 828 406.6111584 828 416 C 828 425.3888416 796.4360784 433 757.5 433 C 718.5639216 433 687 425.3888416 687 416 Z" opacity="0.2"/></g><g transform="translate(-374,-14) scale(1,1)"><path fill="#ffffff" stroke="none" d="M 680 409 C 680 399.6111584 711.5639216 392 750.5 392 C 789.4360784 392 821 399.6111584 821 409 C 821 418.3888416 789.4360784 426 750.5 426 C 711.5639216 426 680 418.3888416 680 409 Z"/></g><g transform="translate(-374,-14) scale(1,1)"><path fill="none" stroke="#000000" d="M 680 409 C 680 399.6111584 711.5639216 392 750.5 392 C 789.4360784 392 821 399.6111584 821 409 C 821 418.3888416 789.4360784 426 750.5 426 C 711.5639216 426 680 418.3888416 680 409 Z" stroke-miterlimit="10"/></g><g transform="translate(-374,-14) scale(1,1)"><g><path fill="none" stroke="none"/><text fill="#000000" stroke="none" font-family="Arial" font-size="13px" font-style="normal" font-weight="bold" text-decoration="none" x="706.77734375" y="416">Ver en el mapa</text></g></g><g transform="translate(-374,-14) scale(1,1)"><path fill="none" stroke="#000000" d="M 484 300 L 706 391" stroke-miterlimit="10"/></g><g transform="translate(-374,-14) scale(1,1)"><path fill="#C0C0C0" stroke="none" d="M 695 464 C 695 454.6111584 718.7289056 447 748 447 C 777.2710944 447 801 454.6111584 801 464 C 801 473.3888416 777.2710944 481 748 481 C 718.7289056 481 695 473.3888416 695 464 Z" opacity="0.2"/></g><g transform="translate(-374,-14) scale(1,1)"><path fill="#ffffff" stroke="none" d="M 688 457 C 688 447.6111584 711.7289056 440 741 440 C 770.2710944 440 794 447.6111584 794 457 C 794 466.3888416 770.2710944 474 741 474 C 711.7289056 474 688 466.3888416 688 457 Z"/></g><g transform="translate(-374,-14) scale(1,1)"><path fill="none" stroke="#000000" d="M 688 457 C 688 447.6111584 711.7289056 440 741 440 C 770.2710944 440 794 447.6111584 794 457 C 794 466.3888416 770.2710944 474 741 474 C 711.7289056 474 688 466.3888416 688 457 Z" stroke-miterlimit="10"/></g><g transform="translate(-374,-14) scale(1,1)"><g><path fill="none" stroke="none"/><text fill="#000000" stroke="none" font-family="Arial" font-size="13px" font-style="normal" font-weight="bold" text-decoration="none" x="710.29638671875" y="464">Crear Sitio</text></g></g><g transform="translate(-374,-14) scale(1,1)"><path fill="none" stroke="#000000" d="M 484 305 L 711 439" stroke-miterlimit="10"/></g><g transform="translate(-374,-14) scale(1,1)"><path fill="none" stroke="#000000" d="M 744 391 L 735 363" stroke-miterlimit="10" stroke-dasharray="3"/></g><g transform="translate(-374,-14) scale(1,1)"><path fill="none" stroke="#000000" d="M 742.1174529369513 371.3870056450609 L 735 363 L 734.1022906710219 373.9633078019668" stroke-miterlimit="10"/></g><g transform="translate(-374,-14) scale(1,1)"><path fill="#C0C0C0" stroke="none" d="M 583 624 C 583 614.6111584 615.0116368 607 654.5 607 C 693.9883632 607 726 614.6111584 726 624 C 726 633.3888416 693.9883632 641 654.5 641 C 615.0116368 641 583 633.3888416 583 624 Z" opacity="0.2"/></g><g transform="translate(-374,-14) scale(1,1)"><path fill="#ffffff" stroke="none" d="M 576 617 C 576 607.6111584 608.0116368 600 647.5 600 C 686.9883632 600 719 607.6111584 719 617 C 719 626.3888416 686.9883632 634 647.5 634 C 608.0116368 634 576 626.3888416 576 617 Z"/></g><g transform="translate(-374,-14) scale(1,1)"><path fill="none" stroke="#000000" d="M 576 617 C 576 607.6111584 608.0116368 600 647.5 600 C 686.9883632 600 719 607.6111584 719 617 C 719 626.3888416 686.9883632 634 647.5 634 C 608.0116368 634 576 626.3888416 576 617 Z" stroke-miterlimit="10"/></g><g transform="translate(-374,-14) scale(1,1)"><g><path fill="none" stroke="none"/><text fill="#000000" stroke="none" font-family="Arial" font-size="13px" font-style="normal" font-weight="bold" text-decoration="none" x="604.8818359375" y="624">Invitar Familiar</text></g></g><g transform="translate(-374,-14) scale(1,1)"><path fill="none" stroke="#000000" d="M 477 328 L 636 599" stroke-miterlimit="10"/></g><g transform="translate(-374,-14) scale(1,1)"><path fill="#C0C0C0" stroke="none" d="M 631 576 C 631 566.6111584 659.2060576 559 694 559 C 728.7939424 559 757 566.6111584 757 576 C 757 585.3888416 728.7939424 593 694 593 C 659.2060576 593 631 585.3888416 631 576 Z" opacity="0.2"/></g><g transform="translate(-374,-14) scale(1,1)"><path fill="#ffffff" stroke="none" d="M 624 569 C 624 559.6111584 652.2060576 552 687 552 C 721.7939424 552 750 559.6111584 750 569 C 750 578.3888416 721.7939424 586 687 586 C 652.2060576 586 624 578.3888416 624 569 Z"/></g><g transform="translate(-374,-14) scale(1,1)"><path fill="none" stroke="#000000" d="M 624 569 C 624 559.6111584 652.2060576 552 687 552 C 721.7939424 552 750 559.6111584 750 569 C 750 578.3888416 721.7939424 586 687 586 C 652.2060576 586 624 578.3888416 624 569 Z" stroke-miterlimit="10"/></g><g transform="translate(-374,-14) scale(1,1)"><g><path fill="none" stroke="none"/><text fill="#000000" stroke="none" font-family="Arial" font-size="13px" font-style="normal" font-weight="bold" text-decoration="none" x="649.7900390625" y="576">Enviar Alerta</text></g></g><g transform="translate(-374,-14) scale(1,1)"><path fill="none" stroke="#000000" d="M 484 324 L 672 551" stroke-miterlimit="10"/></g><g transform="translate(-374,-14) scale(1,1)"><path fill="#ffffff" stroke="none" d="M 450.97478000710225 713.6800000000001 C 450.97478000710225 708.8861679360001 454.86062233204774 705 459.654052734375 705 C 464.44748313670226 705 468.33332546164775 708.8861679360001 468.33332546164775 713.6800000000001 C 468.33332546164775 718.473832064 464.44748313670226 722.36 459.654052734375 722.36 C 454.86062233204774 722.36 450.97478000710225 718.473832064 450.97478000710225 713.6800000000001 Z"/></g><g transform="translate(-374,-14) scale(1,1)"><path fill="none" stroke="#000000" d="M 450.97478000710225 713.6800000000001 C 450.97478000710225 708.8861679360001 454.86062233204774 705 459.654052734375 705 C 464.44748313670226 705 468.33332546164775 708.8861679360001 468.33332546164775 713.6800000000001 C 468.33332546164775 718.473832064 464.44748313670226 722.36 459.654052734375 722.36 C 454.86062233204774 722.36 450.97478000710225 718.473832064 450.97478000710225 713.6800000000001 Z" stroke-miterlimit="10"/></g><g transform="translate(-374,-14) scale(1,1)"><path fill="none" stroke="#000000" d="M 459.654052734375 722.36 L 459.654052734375 739.64" stroke-miterlimit="10"/></g><g transform="translate(-374,-14) scale(1,1)"><path fill="none" stroke="#000000" d="M 450.46423455255683 728.84 L 468.84387091619317 728.84" stroke-miterlimit="10"/></g><g transform="translate(-374,-14) scale(1,1)"><path fill="none" stroke="#000000" d="M 459.654052734375 739.64 L 446.89041637073865 757" stroke-miterlimit="10"/></g><g transform="translate(-374,-14) scale(1,1)"><path fill="none" stroke="#000000" d="M 459.654052734375 739.64 L 472.41768909801135 757" stroke-miterlimit="10"/></g><g transform="translate(-374,-14) scale(1,1)"><g><path fill="none" stroke="none"/><text fill="#000000" stroke="none" font-family="Arial" font-size="13px" font-style="normal" font-weight="bold" text-decoration="none" x="394.63818359375" y="777.5">Familiar Administrador</text></g></g><g transform="translate(-374,-14) scale(1,1)"><path fill="#C0C0C0" stroke="none" d="M 599 739.5 C 599 714.9233264 629.4446336 695 667 695 C 704.5553664 695 735 714.9233264 735 739.5 C 735 764.0766736 704.5553664 784 667 784 C 629.4446336 784 599 764.0766736 599 739.5 Z" opacity="0.2"/></g><g transform="translate(-374,-14) scale(1,1)"><path fill="#ffffff" stroke="none" d="M 592 732.5 C 592 707.9233264 622.4446336 688 660 688 C 697.5553664 688 728 707.9233264 728 732.5 C 728 757.0766736 697.5553664 777 660 777 C 622.4446336 777 592 757.0766736 592 732.5 Z"/></g><g transform="translate(-374,-14) scale(1,1)"><path fill="none" stroke="#000000" d="M 592 732.5 C 592 707.9233264 622.4446336 688 660 688 C 697.5553664 688 728 707.9233264 728 732.5 C 728 757.0766736 697.5553664 777 660 777 C 622.4446336 777 592 757.0766736 592 732.5 Z" stroke-miterlimit="10"/></g><g transform="translate(-374,-14) scale(1,1)"><g><path fill="none" stroke="none"/><text fill="#000000" stroke="none" font-family="Arial" font-size="13px" font-style="normal" font-weight="bold" text-decoration="none" x="643.746826171875" y="720">Crear</text><text fill="#000000" stroke="none" font-family="Arial" font-size="13px" font-style="normal" font-weight="bold" text-decoration="none" x="630.023193359375" y="733">Familiares</text><text fill="#000000" stroke="none" font-family="Arial" font-size="13px" font-style="normal" font-weight="bold" text-decoration="none" x="625.675048828125" y="746">Menores de</text><text fill="#000000" stroke="none" font-family="Arial" font-size="13px" font-style="normal" font-weight="bold" text-decoration="none" x="644.819580078125" y="759">Edad</text></g></g><g transform="translate(-374,-14) scale(1,1)"><path fill="none" stroke="#000000" d="M 536 739 L 591 736" stroke-miterlimit="10"/></g><g transform="translate(-374,-14) scale(1,1)"><path fill="#C0C0C0" stroke="none" d="M 671 528 C 671 518.6111584 705.4740704 511 748 511 C 790.5259296 511 825 518.6111584 825 528 C 825 537.3888416 790.5259296 545 748 545 C 705.4740704 545 671 537.3888416 671 528 Z" opacity="0.2"/></g><g transform="translate(-374,-14) scale(1,1)"><path fill="#ffffff" stroke="none" d="M 664 521 C 664 511.6111584 698.4740704 504 741 504 C 783.5259296 504 818 511.6111584 818 521 C 818 530.3888416 783.5259296 538 741 538 C 698.4740704 538 664 530.3888416 664 521 Z"/></g><g transform="translate(-374,-14) scale(1,1)"><path fill="none" stroke="#000000" d="M 664 521 C 664 511.6111584 698.4740704 504 741 504 C 783.5259296 504 818 511.6111584 818 521 C 818 530.3888416 783.5259296 538 741 538 C 698.4740704 538 664 530.3888416 664 521 Z" stroke-miterlimit="10"/></g><g transform="translate(-374,-14) scale(1,1)"><g><path fill="none" stroke="none"/><text fill="#000000" stroke="none" font-family="Arial" font-size="13px" font-style="normal" font-weight="bold" text-decoration="none" x="695.0048828125" y="528">Listar Trayectos</text></g></g><g transform="translate(-374,-14) scale(1,1)"><path fill="none" stroke="#000000" d="M 484 312 L 719 503" stroke-miterlimit="10"/></g><g transform="translate(-374,-14) scale(1,1)"><path fill="none" stroke="#000000" d="M 741 503 L 741 475" stroke-miterlimit="10" stroke-dasharray="3"/></g><g transform="translate(-374,-14) scale(1,1)"><path fill="none" stroke="#000000" d="M 745.209517756016 485.16267485762415 L 741 475 L 736.790482243984 485.16267485762415" stroke-miterlimit="10"/></g></g></svg>