<svg version="1.1" xmlns="http://www.w3.org/2000/svg" xmlns:xlink="http://www.w3.org/1999/xlink" width="467" height="556"><defs/><g><text fill="#eeeeee" stroke="none" font-family="Arial" font-size="24px" font-style="normal" font-weight="normal" text-decoration="none" x="0" y="0">UNREGISTERED</text><text fill="#eeeeee" stroke="none" font-family="Arial" font-size="24px" font-style="normal" font-weight="normal" text-decoration="none" x="0" y="30">UNREGISTERED</text><text fill="#eeeeee" stroke="none" font-family="Arial" font-size="24px" font-style="normal" font-weight="normal" text-decoration="none" x="0" y="60">UNREGISTERED</text><text fill="#eeeeee" stroke="none" font-family="Arial" font-size="24px" font-style="normal" font-weight="normal" text-decoration="none" x="0" y="90">UNREGISTERED</text><text fill="#eeeeee" stroke="none" font-family="Arial" font-size="24px" font-style="normal" font-weight="normal" text-decoration="none" x="0" y="120">UNREGISTERED</text><text fill="#eeeeee" stroke="none" font-family="Arial" font-size="24px" font-style="normal" font-weight="normal" text-decoration="none" x="0" y="150">UNREGISTERED</text><text fill="#eeeeee" stroke="none" font-family="Arial" font-size="24px" font-style="normal" font-weight="normal" text-decoration="none" x="0" y="180">UNREGISTERED</text><text fill="#eeeeee" stroke="none" font-family="Arial" font-size="24px" font-style="normal" font-weight="normal" text-decoration="none" x="0" y="210">UNREGISTERED</text><text fill="#eeeeee" stroke="none" font-family="Arial" font-size="24px" font-style="normal" font-weight="normal" text-decoration="none" x="0" y="240">UNREGISTERED</text><text fill="#eeeeee" stroke="none" font-family="Arial" font-size="24px" font-style="normal" font-weight="normal" text-decoration="none" x="0" y="270">UNREGISTERED</text><text fill="#eeeeee" stroke="none" font-family="Arial" font-size="24px" font-style="normal" font-weight="normal" text-decoration="none" x="0" y="300">UNREGISTERED</text><text fill="#eeeeee" stroke="none" font-family="Arial" font-size="24px" font-style="normal" font-weight="normal" text-decoration="none" x="0" y="330">UNREGISTERED</text><text fill="#eeeeee" stroke="none" font-family="Arial" font-size="24px" font-style="normal" font-weight="normal" text-decoration="none" x="0" y="360">UNREGISTERED</text><text fill="#eeeeee" stroke="none" font-family="Arial" font-size="24px" font-style="normal" font-weight="normal" text-decoration="none" x="0" y="390">UNREGISTERED</text><text fill="#eeeeee" stroke="none" font-family="Arial" font-size="24px" font-style="normal" font-weight="normal" text-decoration="none" x="0" y="420">UNREGISTERED</text><text fill="#eeeeee" stroke="none" font-family="Arial" font-size="24px" font-style="normal" font-weight="normal" text-decoration="none" x="0" y="450">UNREGISTERED</text><text fill="#eeeeee" stroke="none" font-family="Arial" font-size="24px" font-style="normal" font-weight="normal" text-decoration="none" x="0" y="480">UNREGISTERED</text><text fill="#eeeeee" stroke="none" font-family="Arial" font-size="24px" font-style="normal" font-weight="normal" text-decoration="none" x="0" y="510">UNREGISTERED</text><text fill="#eeeeee" stroke="none" font-family="Arial" font-size="24px" font-style="normal" font-weight="normal" text-decoration="none" x="0" y="540">UNREGISTERED</text><text fill="#eeeeee" stroke="none" font-family="Arial" font-size="24px" font-style="normal" font-weight="normal" text-decoration="none" x="200" y="0">UNREGISTERED</text><text fill="#eeeeee" stroke="none" font-family="Arial" font-size="24px" font-style="normal" font-weight="normal" text-decoration="none" x="200" y="30">UNREGISTERED</text><text fill="#eeeeee" stroke="none" font-family="Arial" font-size="24px" font-style="normal" font-weight="normal" text-decoration="none" x="200" y="60">UNREGISTERED</text><text fill="#eeeeee" stroke="none" font-family="Arial" font-size="24px" font-style="normal" font-weight="normal" text-decoration="none" x="200" y="90">UNREGISTERED</text><text fill="#eeeeee" stroke="none" font-family="Arial" font-size="24px" font-style="normal" font-weight="normal" text-decoration="none" x="200" y="120">UNREGISTERED</text><text fill="#eeeeee" stroke="none" font-family="Arial" font-size="24px" font-style="normal" font-weight="normal" text-decoration="none" x="200" y="150">UNREGISTERED</text><text fill="#eeeeee" stroke="none" font-family="Arial" font-size="24px" font-style="normal" font-weight="normal" text-decoration="none" x="200" y="180">UNREGISTERED</text><text fill="#eeeeee" stroke="none" font-family="Arial" font-size="24px" font-style="normal" font-weight="normal" text-decoration="none" x="200" y="210">UNREGISTERED</text><text fill="#eeeeee" stroke="none" font-family="Arial" font-size="24px" font-style="normal" font-weight="normal" text-decoration="none" x="200" y="240">UNREGISTERED</text><text fill="#eeeeee" stroke="none" font-family="Arial" font-size="24px" font-style="normal" font-weight="normal" text-decoration="none" x="200" y="270">UNREGISTERED</text><text fill="#eeeeee" stroke="none" font-family="Arial" font-size="24px" font-style="normal" font-weight="normal" text-decoration="none" x="200" y="300">UNREGISTERED</text><text fill="#eeeeee" stroke="none" font-family="Arial" font-size="24px" font-style="normal" font-weight="normal" text-decoration="none" x="200" y="330">UNREGISTERED</text><text fill="#eeeeee" stroke="none" font-family="Arial" font-size="24px" font-style="normal" font-weight="normal" text-decoration="none" x="200" y="360">UNREGISTERED</text><text fill="#eeeeee" stroke="none" font-family="Arial" font-size="24px" font-style="normal" font-weight="normal" text-decoration="none" x="200" y="390">UNREGISTERED</text><text fill="#eeeeee" stroke="none" font-family="Arial" font-size="24px" font-style="normal" font-weight="normal" text-decoration="none" x="200" y="420">UNREGISTERED</text><text fill="#eeeeee" stroke="none" font-family="Arial" font-size="24px" font-style="normal" font-weight="normal" text-decoration="none" x="200" y="450">UNREGISTERED</text><text fill="#eeeeee" stroke="none" font-family="Arial" font-size="24px" font-style="normal" font-weight="normal" text-decoration="none" x="200" y="480">UNREGISTERED</text><text fill="#eeeeee" stroke="none" font-family="Arial" font-size="24px" font-style="normal" font-weight="normal" text-decoration="none" x="200" y="510">UNREGISTERED</text><text fill="#eeeeee" stroke="none" font-family="Arial" font-size="24px" font-style="normal" font-weight="normal" text-decoration="none" x="200" y="540">UNREGISTERED</text><text fill="#eeeeee" stroke="none" font-family="Arial" font-size="24px" font-style="normal" font-weight="normal" text-decoration="none" x="400" y="0">UNREGISTERED</text><text fill="#eeeeee" stroke="none" font-family="Arial" font-size="24px" font-style="normal" font-weight="normal" text-decoration="none" x="400" y="30">UNREGISTERED</text><text fill="#eeeeee" stroke="none" font-family="Arial" font-size="24px" font-style="normal" font-weight="normal" text-decoration="none" x="400" y="60">UNREGISTERED</text><text fill="#eeeeee" stroke="none" font-family="Arial" font-size="24px" font-style="normal" font-weight="normal" text-decoration="none" x="400" y="90">UNREGISTERED</text><text fill="#eeeeee" stroke="none" font-family="Arial" font-size="24px" font-style="normal" font-weight="normal" text-decoration="none" x="400" y="120">UNREGISTERED</text><text fill="#eeeeee" stroke="none" font-family="Arial" font-size="24px" font-style="normal" font-weight="normal" text-decoration="none" x="400" y="150">UNREGISTERED</text><text fill="#eeeeee" stroke="none" font-family="Arial" font-size="24px" font-style="normal" font-weight="normal" text-decoration="none" x="400" y="180">UNREGISTERED</text><text fill="#eeeeee" stroke="none" font-family="Arial" font-size="24px" font-style="normal" font-weight="normal" text-decoration="none" x="400" y="210">UNREGISTERED</text><text fill="#eeeeee" stroke="none" font-family="Arial" font-size="24px" font-style="normal" font-weight="normal" text-decoration="none" x="400" y="240">UNREGISTERED</text><text fill="#eeeeee" stroke="none" font-family="Arial" font-size="24px" font-style="normal" font-weight="normal" text-decoration="none" x="400" y="270">UNREGISTERED</text><text fill="#eeeeee" stroke="none" font-family="Arial" font-size="24px" font-style="normal" font-weight="normal" text-decoration="none" x="400" y="300">UNREGISTERED</text><text fill="#eeeeee" stroke="none" font-family="Arial" font-size="24px" font-style="normal" font-weight="normal" text-decoration="none" x="400" y="330">UNREGISTERED</text><text fill="#eeeeee" stroke="none" font-family="Arial" font-size="24px" font-style="normal" font-weight="normal" text-decoration="none" x="400" y="360">UNREGISTERED</text><text fill="#eeeeee" stroke="none" font-family="Arial" font-size="24px" font-style="normal" font-weight="normal" text-decoration="none" x="400" y="390">UNREGISTERED</text><text fill="#eeeeee" stroke="none" font-family="Arial" font-size="24px" font-style="normal" font-weight="normal" text-decoration="none" x="400" y="420">UNREGISTERED</text><text fill="#eeeeee" stroke="none" font-family="Arial" font-size="24px" font-style="normal" font-weight="normal" text-decoration="none" x="400" y="450">UNREGISTERED</text><text fill="#eeeeee" stroke="none" font-family="Arial" font-size="24px" font-style="normal" font-weight="normal" text-decoration="none" x="400" y="480">UNREGISTERED</text><text fill="#eeeeee" stroke="none" font-family="Arial" font-size="24px" font-style="normal" font-weight="normal" text-decoration="none" x="400" y="510">UNREGISTERED</text><text fill="#eeeeee" stroke="none" font-family="Arial" font-size="24px" font-style="normal" font-weight="normal" text-decoration="none" x="400" y="540">UNREGISTERED</text><g transform="translate(-414,-38) scale(1,1)"><path fill="none" stroke="#000000" d="M 584 48 L 871 48 L 871 584 L 584 584 L 584 48" stroke-miterlimit="10"/></g><g transform="translate(-414,-38) scale(1,1)"><path fill="#ffffff" stroke="none" d="M 584 48 L 584 70 L 678.75537109375 70 L 689.75537109375 59 L 689.75537109375 48 L 584 48"/></g><g transform="translate(-414,-38) scale(1,1)"><path fill="none" stroke="#000000" d="M 584 48 L 584 70 L 678.75537109375 70 L 689.75537109375 59 L 689.75537109375 48 L 584 48 L 584 48" stroke-miterlimit="10"/></g><g transform="translate(-414,-38) scale(1,1)"><g><path fill="none" stroke="none"/><text fill="#000000" stroke="none" font-family="Arial" font-size="13px" font-style="normal" font-weight="normal" text-decoration="none" x="595" y="65.5">PignusCivitas</text></g></g><g transform="translate(-414,-38) scale(1,1)"><g><path fill="none" stroke="none"/><text fill="#000000" stroke="none" font-family="Arial" font-size="13px" font-style="normal" font-weight="bold" text-decoration="none" x="589" y="65.5"></text></g></g><g transform="translate(-414,-38) scale(1,1)"><path fill="#ffffff" stroke="none" d="M 444.74797336647725 257.68 C 444.74797336647725 252.886167936 448.63381569142274 249 453.42724609375 249 C 458.22067649607726 249 462.10651882102275 252.886167936 462.10651882102275 257.68 C 462.10651882102275 262.473832064 458.22067649607726 266.36 453.42724609375 266.36 C 448.63381569142274 266.36 444.74797336647725 262.473832064 444.74797336647725 257.68 Z"/></g><g transform="translate(-414,-38) scale(1,1)"><path fill="none" stroke="#000000" d="M 444.74797336647725 257.68 C 444.74797336647725 252.886167936 448.63381569142274 249 453.42724609375 249 C 458.22067649607726 249 462.10651882102275 252.886167936 462.10651882102275 257.68 C 462.10651882102275 262.473832064 458.22067649607726 266.36 453.42724609375 266.36 C 448.63381569142274 266.36 444.74797336647725 262.473832064 444.74797336647725 257.68 Z" stroke-miterlimit="10"/></g><g transform="translate(-414,-38) scale(1,1)"><path fill="none" stroke="#000000" d="M 453.42724609375 266.36 L 453.42724609375 283.64" stroke-miterlimit="10"/></g><g transform="translate(-414,-38) scale(1,1)"><path fill="none" stroke="#000000" d="M 444.23742791193183 272.84 L 462.61706427556817 272.84" stroke-miterlimit="10"/></g><g transform="translate(-414,-38) scale(1,1)"><path fill="none" stroke="#000000" d="M 453.42724609375 283.64 L 440.66360973011365 301" stroke-miterlimit="10"/></g><g transform="translate(-414,-38) scale(1,1)"><path fill="none" stroke="#000000" d="M 453.42724609375 283.64 L 466.19088245738635 301" stroke-miterlimit="10"/></g><g transform="translate(-414,-38) scale(1,1)"><g><path fill="none" stroke="none"/><text fill="#000000" stroke="none" font-family="Arial" font-size="13px" font-style="normal" font-weight="bold" text-decoration="none" x="430.3154296875" y="321.5">Familiar</text></g></g><g transform="translate(-414,-38) scale(1,1)"><path fill="#C0C0C0" stroke="none" d="M 615 136 C 615 126.6111584 646.5639216 119 685.5 119 C 724.4360784 119 756 126.6111584 756 136 C 756 145.3888416 724.4360784 153 685.5 153 C 646.5639216 153 615 145.3888416 615 136 Z" opacity="0.2"/></g><g transform="translate(-414,-38) scale(1,1)"><path fill="#ffffff" stroke="none" d="M 608 129 C 608 119.6111584 639.5639216 112 678.5 112 C 717.4360784 112 749 119.6111584 749 129 C 749 138.3888416 717.4360784 146 678.5 146 C 639.5639216 146 608 138.3888416 608 129 Z"/></g><g transform="translate(-414,-38) scale(1,1)"><path fill="none" stroke="#000000" d="M 608 129 C 608 119.6111584 639.5639216 112 678.5 112 C 717.4360784 112 749 119.6111584 749 129 C 749 138.3888416 717.4360784 146 678.5 146 C 639.5639216 146 608 138.3888416 608 129 Z" stroke-miterlimit="10"/></g><g transform="translate(-414,-38) scale(1,1)"><g><path fill="none" stroke="none"/><text fill="#000000" stroke="none" font-family="Arial" font-size="13px" font-style="normal" font-weight="bold" text-decoration="none" x="636.602294921875" y="136">Listar Familias</text></g></g><g transform="translate(-414,-38) scale(1,1)"><path fill="none" stroke="#000000" d="M 484 265 L 652 147" stroke-miterlimit="10"/></g><g transform="translate(-414,-38) scale(1,1)"><path fill="#C0C0C0" stroke="none" d="M 631 192 C 631 182.6111584 666.5933583999999 175 710.5 175 C 754.4066416000001 175 790 182.6111584 790 192 C 790 201.3888416 754.4066416000001 209 710.5 209 C 666.5933583999999 209 631 201.3888416 631 192 Z" opacity="0.2"/></g><g transform="translate(-414,-38) scale(1,1)"><path fill="#ffffff" stroke="none" d="M 624 185 C 624 175.6111584 659.5933583999999 168 703.5 168 C 747.4066416000001 168 783 175.6111584 783 185 C 783 194.3888416 747.4066416000001 202 703.5 202 C 659.5933583999999 202 624 194.3888416 624 185 Z"/></g><g transform="translate(-414,-38) scale(1,1)"><path fill="none" stroke="#000000" d="M 624 185 C 624 175.6111584 659.5933583999999 168 703.5 168 C 747.4066416000001 168 783 175.6111584 783 185 C 783 194.3888416 747.4066416000001 202 703.5 202 C 659.5933583999999 202 624 194.3888416 624 185 Z" stroke-miterlimit="10"/></g><g transform="translate(-414,-38) scale(1,1)"><g><path fill="none" stroke="none"/><text fill="#000000" stroke="none" font-family="Arial" font-size="13px" font-style="normal" font-weight="bold" text-decoration="none" x="655.82275390625" y="192">Listar Familiares</text></g></g><g transform="translate(-414,-38) scale(1,1)"><path fill="none" stroke="#000000" d="M 484 274 L 659 203" stroke-miterlimit="10"/></g><g transform="translate(-414,-38) scale(1,1)"><path fill="#C0C0C0" stroke="none" d="M 623 248 C 623 238.6111584 649.1913392 231 681.5 231 C 713.8086608 231 740 238.6111584 740 248 C 740 257.3888416 713.8086608 265 681.5 265 C 649.1913392 265 623 257.3888416 623 248 Z" opacity="0.2"/></g><g transform="translate(-414,-38) scale(1,1)"><path fill="#ffffff" stroke="none" d="M 616 241 C 616 231.6111584 642.1913392 224 674.5 224 C 706.8086608 224 733 231.6111584 733 241 C 733 250.3888416 706.8086608 258 674.5 258 C 642.1913392 258 616 250.3888416 616 241 Z"/></g><g transform="translate(-414,-38) scale(1,1)"><path fill="none" stroke="#000000" d="M 616 241 C 616 231.6111584 642.1913392 224 674.5 224 C 706.8086608 224 733 231.6111584 733 241 C 733 250.3888416 706.8086608 258 674.5 258 C 642.1913392 258 616 250.3888416 616 241 Z" stroke-miterlimit="10"/></g><g transform="translate(-414,-38) scale(1,1)"><g><path fill="none" stroke="none"/><text fill="#000000" stroke="none" font-family="Arial" font-size="13px" font-style="normal" font-weight="bold" text-decoration="none" x="639.825927734375" y="248">Ver Familiar</text></g></g><g transform="translate(-414,-38) scale(1,1)"><path fill="none" stroke="#000000" d="M 484 281 L 615 253" stroke-miterlimit="10"/></g><g transform="translate(-414,-38) scale(1,1)"><path fill="#C0C0C0" stroke="none" d="M 631 320 C 631 310.6111584 670.8466528 303 720 303 C 769.1533472 303 809 310.6111584 809 320 C 809 329.3888416 769.1533472 337 720 337 C 670.8466528 337 631 329.3888416 631 320 Z" opacity="0.2"/></g><g transform="translate(-414,-38) scale(1,1)"><path fill="#ffffff" stroke="none" d="M 624 313 C 624 303.6111584 663.8466528 296 713 296 C 762.1533472 296 802 303.6111584 802 313 C 802 322.3888416 762.1533472 330 713 330 C 663.8466528 330 624 322.3888416 624 313 Z"/></g><g transform="translate(-414,-38) scale(1,1)"><path fill="none" stroke="#000000" d="M 624 313 C 624 303.6111584 663.8466528 296 713 296 C 762.1533472 296 802 303.6111584 802 313 C 802 322.3888416 762.1533472 330 713 330 C 663.8466528 330 624 322.3888416 624 313 Z" stroke-miterlimit="10"/></g><g transform="translate(-414,-38) scale(1,1)"><g><path fill="none" stroke="none"/><text fill="#000000" stroke="none" font-family="Arial" font-size="13px" font-style="normal" font-weight="bold" text-decoration="none" x="659.53369140625" y="320">Solicitar Ubicación</text></g></g><g transform="translate(-414,-38) scale(1,1)"><path fill="none" stroke="#000000" d="M 484 290 L 623 304" stroke-miterlimit="10"/></g><g transform="translate(-414,-38) scale(1,1)"><path fill="none" stroke="#000000" d="M 703 295 L 684 259" stroke-miterlimit="10" stroke-dasharray="3"/></g><g transform="translate(-414,-38) scale(1,1)"><path fill="none" stroke="#000000" d="M 692.4663494078218 266.0228859954206 L 684 259 L 685.0206827673036 269.9525433890275" stroke-miterlimit="10"/></g><g transform="translate(-414,-38) scale(1,1)"><g><path fill="none" stroke="none"/><text fill="#000000" stroke="none" font-family="Arial" font-size="13px" font-style="normal" font-weight="normal" text-decoration="none" x="697.5" y="273.5">«include»</text></g></g><g transform="translate(-414,-38) scale(1,1)"><path fill="#C0C0C0" stroke="none" d="M 639 384 C 639 374.6111584 670.5639216 367 709.5 367 C 748.4360784 367 780 374.6111584 780 384 C 780 393.3888416 748.4360784 401 709.5 401 C 670.5639216 401 639 393.3888416 639 384 Z" opacity="0.2"/></g><g transform="translate(-414,-38) scale(1,1)"><path fill="#ffffff" stroke="none" d="M 632 377 C 632 367.6111584 663.5639216 360 702.5 360 C 741.4360784 360 773 367.6111584 773 377 C 773 386.3888416 741.4360784 394 702.5 394 C 663.5639216 394 632 386.3888416 632 377 Z"/></g><g transform="translate(-414,-38) scale(1,1)"><path fill="none" stroke="#000000" d="M 632 377 C 632 367.6111584 663.5639216 360 702.5 360 C 741.4360784 360 773 367.6111584 773 377 C 773 386.3888416 741.4360784 394 702.5 394 C 663.5639216 394 632 386.3888416 632 377 Z" stroke-miterlimit="10"/></g><g transform="translate(-414,-38) scale(1,1)"><g><path fill="none" stroke="none"/><text fill="#000000" stroke="none" font-family="Arial" font-size="13px" font-style="normal" font-weight="bold" text-decoration="none" x="658.77734375" y="384">Ver en el mapa</text></g></g><g transform="translate(-414,-38) scale(1,1)"><path fill="none" stroke="#000000" d="M 484 298 L 652 359" stroke-miterlimit="10"/></g><g transform="translate(-414,-38) scale(1,1)"><path fill="#C0C0C0" stroke="none" d="M 631 448 C 631 438.6111584 654.7289056 431 684 431 C 713.2710944 431 737 438.6111584 737 448 C 737 457.3888416 713.2710944 465 684 465 C 654.7289056 465 631 457.3888416 631 448 Z" opacity="0.2"/></g><g transform="translate(-414,-38) scale(1,1)"><path fill="#ffffff" stroke="none" d="M 624 441 C 624 431.6111584 647.7289056 424 677 424 C 706.2710944 424 730 431.6111584 730 441 C 730 450.3888416 706.2710944 458 677 458 C 647.7289056 458 624 450.3888416 624 441 Z"/></g><g transform="translate(-414,-38) scale(1,1)"><path fill="none" stroke="#000000" d="M 624 441 C 624 431.6111584 647.7289056 424 677 424 C 706.2710944 424 730 431.6111584 730 441 C 730 450.3888416 706.2710944 458 677 458 C 647.7289056 458 624 450.3888416 624 441 Z" stroke-miterlimit="10"/></g><g transform="translate(-414,-38) scale(1,1)"><g><path fill="none" stroke="none"/><text fill="#000000" stroke="none" font-family="Arial" font-size="13px" font-style="normal" font-weight="bold" text-decoration="none" x="646.29638671875" y="448">Crear Sitio</text></g></g><g transform="translate(-414,-38) scale(1,1)"><path fill="none" stroke="#000000" d="M 484 308 L 651 423" stroke-miterlimit="10"/></g><g transform="translate(-414,-38) scale(1,1)"><path fill="none" stroke="#000000" d="M 705 359 L 710 331" stroke-miterlimit="10" stroke-dasharray="3"/></g><g transform="translate(-414,-38) scale(1,1)"><path fill="none" stroke="#000000" d="M 712.3574622566912 341.7444111848103 L 710 331 L 704.0695315394618 340.2644235567336" stroke-miterlimit="10"/></g><g transform="translate(-414,-38) scale(1,1)"><path fill="#C0C0C0" stroke="none" d="M 599 504 C 599 494.6111584 631.0116368 487 670.5 487 C 709.9883632 487 742 494.6111584 742 504 C 742 513.3888416 709.9883632 521 670.5 521 C 631.0116368 521 599 513.3888416 599 504 Z" opacity="0.2"/></g><g transform="translate(-414,-38) scale(1,1)"><path fill="#ffffff" stroke="none" d="M 592 497 C 592 487.6111584 624.0116368 480 663.5 480 C 702.9883632 480 735 487.6111584 735 497 C 735 506.3888416 702.9883632 514 663.5 514 C 624.0116368 514 592 506.3888416 592 497 Z"/></g><g transform="translate(-414,-38) scale(1,1)"><path fill="none" stroke="#000000" d="M 592 497 C 592 487.6111584 624.0116368 480 663.5 480 C 702.9883632 480 735 487.6111584 735 497 C 735 506.3888416 702.9883632 514 663.5 514 C 624.0116368 514 592 506.3888416 592 497 Z" stroke-miterlimit="10"/></g><g transform="translate(-414,-38) scale(1,1)"><g><path fill="none" stroke="none"/><text fill="#000000" stroke="none" font-family="Arial" font-size="13px" font-style="normal" font-weight="bold" text-decoration="none" x="620.8818359375" y="504">Invitar Familiar</text></g></g><g transform="translate(-414,-38) scale(1,1)"><path fill="none" stroke="#000000" d="M 484 318 L 645 479" stroke-miterlimit="10"/></g></g></svg>