<svg version="1.1" xmlns="http://www.w3.org/2000/svg" xmlns:xlink="http://www.w3.org/1999/xlink" width="990.919921875" height="576"><defs/><g><text fill="#eeeeee" stroke="none" font-family="Arial" font-size="24px" font-style="normal" font-weight="normal" text-decoration="none" x="0" y="0">UNREGISTERED</text><text fill="#eeeeee" stroke="none" font-family="Arial" font-size="24px" font-style="normal" font-weight="normal" text-decoration="none" x="0" y="30">UNREGISTERED</text><text fill="#eeeeee" stroke="none" font-family="Arial" font-size="24px" font-style="normal" font-weight="normal" text-decoration="none" x="0" y="60">UNREGISTERED</text><text fill="#eeeeee" stroke="none" font-family="Arial" font-size="24px" font-style="normal" font-weight="normal" text-decoration="none" x="0" y="90">UNREGISTERED</text><text fill="#eeeeee" stroke="none" font-family="Arial" font-size="24px" font-style="normal" font-weight="normal" text-decoration="none" x="0" y="120">UNREGISTERED</text><text fill="#eeeeee" stroke="none" font-family="Arial" font-size="24px" font-style="normal" font-weight="normal" text-decoration="none" x="0" y="150">UNREGISTERED</text><text fill="#eeeeee" stroke="none" font-family="Arial" font-size="24px" font-style="normal" font-weight="normal" text-decoration="none" x="0" y="180">UNREGISTERED</text><text fill="#eeeeee" stroke="none" font-family="Arial" font-size="24px" font-style="normal" font-weight="normal" text-decoration="none" x="0" y="210">UNREGISTERED</text><text fill="#eeeeee" stroke="none" font-family="Arial" font-size="24px" font-style="normal" font-weight="normal" text-decoration="none" x="0" y="240">UNREGISTERED</text><text fill="#eeeeee" stroke="none" font-family="Arial" font-size="24px" font-style="normal" font-weight="normal" text-decoration="none" x="0" y="270">UNREGISTERED</text><text fill="#eeeeee" stroke="none" font-family="Arial" font-size="24px" font-style="normal" font-weight="normal" text-decoration="none" x="0" y="300">UNREGISTERED</text><text fill="#eeeeee" stroke="none" font-family="Arial" font-size="24px" font-style="normal" font-weight="normal" text-decoration="none" x="0" y="330">UNREGISTERED</text><text fill="#eeeeee" stroke="none" font-family="Arial" font-size="24px" font-style="normal" font-weight="normal" text-decoration="none" x="0" y="360">UNREGISTERED</text><text fill="#eeeeee" stroke="none" font-family="Arial" font-size="24px" font-style="normal" font-weight="normal" text-decoration="none" x="0" y="390">UNREGISTERED</text><text fill="#eeeeee" stroke="none" font-family="Arial" font-size="24px" font-style="normal" font-weight="normal" text-decoration="none" x="0" y="420">UNREGISTERED</text><text fill="#eeeeee" stroke="none" font-family="Arial" font-size="24px" font-style="normal" font-weight="normal" text-decoration="none" x="0" y="450">UNREGISTERED</text><text fill="#eeeeee" stroke="none" font-family="Arial" font-size="24px" font-style="normal" font-weight="normal" text-decoration="none" x="0" y="480">UNREGISTERED</text><text fill="#eeeeee" stroke="none" font-family="Arial" font-size="24px" font-style="normal" font-weight="normal" text-decoration="none" x="0" y="510">UNREGISTERED</text><text fill="#eeeeee" stroke="none" font-family="Arial" font-size="24px" font-style="normal" font-weight="normal" text-decoration="none" x="0" y="540">UNREGISTERED</text><text fill="#eeeeee" stroke="none" font-family="Arial" font-size="24px" font-style="normal" font-weight="normal" text-decoration="none" x="0" y="570">UNREGISTERED</text><text fill="#eeeeee" stroke="none" font-family="Arial" font-size="24px" font-style="normal" font-weight="normal" text-decoration="none" x="200" y="0">UNREGISTERED</text><text fill="#eeeeee" stroke="none" font-family="Arial" font-size="24px" font-style="normal" font-weight="normal" text-decoration="none" x="200" y="30">UNREGISTERED</text><text fill="#eeeeee" stroke="none" font-family="Arial" font-size="24px" font-style="normal" font-weight="normal" text-decoration="none" x="200" y="60">UNREGISTERED</text><text fill="#eeeeee" stroke="none" font-family="Arial" font-size="24px" font-style="normal" font-weight="normal" text-decoration="none" x="200" y="90">UNREGISTERED</text><text fill="#eeeeee" stroke="none" font-family="Arial" font-size="24px" font-style="normal" font-weight="normal" text-decoration="none" x="200" y="120">UNREGISTERED</text><text fill="#eeeeee" stroke="none" font-family="Arial" font-size="24px" font-style="normal" font-weight="normal" text-decoration="none" x="200" y="150">UNREGISTERED</text><text fill="#eeeeee" stroke="none" font-family="Arial" font-size="24px" font-style="normal" font-weight="normal" text-decoration="none" x="200" y="180">UNREGISTERED</text><text fill="#eeeeee" stroke="none" font-family="Arial" font-size="24px" font-style="normal" font-weight="normal" text-decoration="none" x="200" y="210">UNREGISTERED</text><text fill="#eeeeee" stroke="none" font-family="Arial" font-size="24px" font-style="normal" font-weight="normal" text-decoration="none" x="200" y="240">UNREGISTERED</text><text fill="#eeeeee" stroke="none" font-family="Arial" font-size="24px" font-style="normal" font-weight="normal" text-decoration="none" x="200" y="270">UNREGISTERED</text><text fill="#eeeeee" stroke="none" font-family="Arial" font-size="24px" font-style="normal" font-weight="normal" text-decoration="none" x="200" y="300">UNREGISTERED</text><text fill="#eeeeee" stroke="none" font-family="Arial" font-size="24px" font-style="normal" font-weight="normal" text-decoration="none" x="200" y="330">UNREGISTERED</text><text fill="#eeeeee" stroke="none" font-family="Arial" font-size="24px" font-style="normal" font-weight="normal" text-decoration="none" x="200" y="360">UNREGISTERED</text><text fill="#eeeeee" stroke="none" font-family="Arial" font-size="24px" font-style="normal" font-weight="normal" text-decoration="none" x="200" y="390">UNREGISTERED</text><text fill="#eeeeee" stroke="none" font-family="Arial" font-size="24px" font-style="normal" font-weight="normal" text-decoration="none" x="200" y="420">UNREGISTERED</text><text fill="#eeeeee" stroke="none" font-family="Arial" font-size="24px" font-style="normal" font-weight="normal" text-decoration="none" x="200" y="450">UNREGISTERED</text><text fill="#eeeeee" stroke="none" font-family="Arial" font-size="24px" font-style="normal" font-weight="normal" text-decoration="none" x="200" y="480">UNREGISTERED</text><text fill="#eeeeee" stroke="none" font-family="Arial" font-size="24px" font-style="normal" font-weight="normal" text-decoration="none" x="200" y="510">UNREGISTERED</text><text fill="#eeeeee" stroke="none" font-family="Arial" font-size="24px" font-style="normal" font-weight="normal" text-decoration="none" x="200" y="540">UNREGISTERED</text><text fill="#eeeeee" stroke="none" font-family="Arial" font-size="24px" font-style="normal" font-weight="normal" text-decoration="none" x="200" y="570">UNREGISTERED</text><text fill="#eeeeee" stroke="none" font-family="Arial" font-size="24px" font-style="normal" font-weight="normal" text-decoration="none" x="400" y="0">UNREGISTERED</text><text fill="#eeeeee" stroke="none" font-family="Arial" font-size="24px" font-style="normal" font-weight="normal" text-decoration="none" x="400" y="30">UNREGISTERED</text><text fill="#eeeeee" stroke="none" font-family="Arial" font-size="24px" font-style="normal" font-weight="normal" text-decoration="none" x="400" y="60">UNREGISTERED</text><text fill="#eeeeee" stroke="none" font-family="Arial" font-size="24px" font-style="normal" font-weight="normal" text-decoration="none" x="400" y="90">UNREGISTERED</text><text fill="#eeeeee" stroke="none" font-family="Arial" font-size="24px" font-style="normal" font-weight="normal" text-decoration="none" x="400" y="120">UNREGISTERED</text><text fill="#eeeeee" stroke="none" font-family="Arial" font-size="24px" font-style="normal" font-weight="normal" text-decoration="none" x="400" y="150">UNREGISTERED</text><text fill="#eeeeee" stroke="none" font-family="Arial" font-size="24px" font-style="normal" font-weight="normal" text-decoration="none" x="400" y="180">UNREGISTERED</text><text fill="#eeeeee" stroke="none" font-family="Arial" font-size="24px" font-style="normal" font-weight="normal" text-decoration="none" x="400" y="210">UNREGISTERED</text><text fill="#eeeeee" stroke="none" font-family="Arial" font-size="24px" font-style="normal" font-weight="normal" text-decoration="none" x="400" y="240">UNREGISTERED</text><text fill="#eeeeee" stroke="none" font-family="Arial" font-size="24px" font-style="normal" font-weight="normal" text-decoration="none" x="400" y="270">UNREGISTERED</text><text fill="#eeeeee" stroke="none" font-family="Arial" font-size="24px" font-style="normal" font-weight="normal" text-decoration="none" x="400" y="300">UNREGISTERED</text><text fill="#eeeeee" stroke="none" font-family="Arial" font-size="24px" font-style="normal" font-weight="normal" text-decoration="none" x="400" y="330">UNREGISTERED</text><text fill="#eeeeee" stroke="none" font-family="Arial" font-size="24px" font-style="normal" font-weight="normal" text-decoration="none" x="400" y="360">UNREGISTERED</text><text fill="#eeeeee" stroke="none" font-family="Arial" font-size="24px" font-style="normal" font-weight="normal" text-decoration="none" x="400" y="390">UNREGISTERED</text><text fill="#eeeeee" stroke="none" font-family="Arial" font-size="24px" font-style="normal" font-weight="normal" text-decoration="none" x="400" y="420">UNREGISTERED</text><text fill="#eeeeee" stroke="none" font-family="Arial" font-size="24px" font-style="normal" font-weight="normal" text-decoration="none" x="400" y="450">UNREGISTERED</text><text fill="#eeeeee" stroke="none" font-family="Arial" font-size="24px" font-style="normal" font-weight="normal" text-decoration="none" x="400" y="480">UNREGISTERED</text><text fill="#eeeeee" stroke="none" font-family="Arial" font-size="24px" font-style="normal" font-weight="normal" text-decoration="none" x="400" y="510">UNREGISTERED</text><text fill="#eeeeee" stroke="none" font-family="Arial" font-size="24px" font-style="normal" font-weight="normal" text-decoration="none" x="400" y="540">UNREGISTERED</text><text fill="#eeeeee" stroke="none" font-family="Arial" font-size="24px" font-style="normal" font-weight="normal" text-decoration="none" x="400" y="570">UNREGISTERED</text><text fill="#eeeeee" stroke="none" font-family="Arial" font-size="24px" font-style="normal" font-weight="normal" text-decoration="none" x="600" y="0">UNREGISTERED</text><text fill="#eeeeee" stroke="none" font-family="Arial" font-size="24px" font-style="normal" font-weight="normal" text-decoration="none" x="600" y="30">UNREGISTERED</text><text fill="#eeeeee" stroke="none" font-family="Arial" font-size="24px" font-style="normal" font-weight="normal" text-decoration="none" x="600" y="60">UNREGISTERED</text><text fill="#eeeeee" stroke="none" font-family="Arial" font-size="24px" font-style="normal" font-weight="normal" text-decoration="none" x="600" y="90">UNREGISTERED</text><text fill="#eeeeee" stroke="none" font-family="Arial" font-size="24px" font-style="normal" font-weight="normal" text-decoration="none" x="600" y="120">UNREGISTERED</text><text fill="#eeeeee" stroke="none" font-family="Arial" font-size="24px" font-style="normal" font-weight="normal" text-decoration="none" x="600" y="150">UNREGISTERED</text><text fill="#eeeeee" stroke="none" font-family="Arial" font-size="24px" font-style="normal" font-weight="normal" text-decoration="none" x="600" y="180">UNREGISTERED</text><text fill="#eeeeee" stroke="none" font-family="Arial" font-size="24px" font-style="normal" font-weight="normal" text-decoration="none" x="600" y="210">UNREGISTERED</text><text fill="#eeeeee" stroke="none" font-family="Arial" font-size="24px" font-style="normal" font-weight="normal" text-decoration="none" x="600" y="240">UNREGISTERED</text><text fill="#eeeeee" stroke="none" font-family="Arial" font-size="24px" font-style="normal" font-weight="normal" text-decoration="none" x="600" y="270">UNREGISTERED</text><text fill="#eeeeee" stroke="none" font-family="Arial" font-size="24px" font-style="normal" font-weight="normal" text-decoration="none" x="600" y="300">UNREGISTERED</text><text fill="#eeeeee" stroke="none" font-family="Arial" font-size="24px" font-style="normal" font-weight="normal" text-decoration="none" x="600" y="330">UNREGISTERED</text><text fill="#eeeeee" stroke="none" font-family="Arial" font-size="24px" font-style="normal" font-weight="normal" text-decoration="none" x="600" y="360">UNREGISTERED</text><text fill="#eeeeee" stroke="none" font-family="Arial" font-size="24px" font-style="normal" font-weight="normal" text-decoration="none" x="600" y="390">UNREGISTERED</text><text fill="#eeeeee" stroke="none" font-family="Arial" font-size="24px" font-style="normal" font-weight="normal" text-decoration="none" x="600" y="420">UNREGISTERED</text><text fill="#eeeeee" stroke="none" font-family="Arial" font-size="24px" font-style="normal" font-weight="normal" text-decoration="none" x="600" y="450">UNREGISTERED</text><text fill="#eeeeee" stroke="none" font-family="Arial" font-size="24px" font-style="normal" font-weight="normal" text-decoration="none" x="600" y="480">UNREGISTERED</text><text fill="#eeeeee" stroke="none" font-family="Arial" font-size="24px" font-style="normal" font-weight="normal" text-decoration="none" x="600" y="510">UNREGISTERED</text><text fill="#eeeeee" stroke="none" font-family="Arial" font-size="24px" font-style="normal" font-weight="normal" text-decoration="none" x="600" y="540">UNREGISTERED</text><text fill="#eeeeee" stroke="none" font-family="Arial" font-size="24px" font-style="normal" font-weight="normal" text-decoration="none" x="600" y="570">UNREGISTERED</text><text fill="#eeeeee" stroke="none" font-family="Arial" font-size="24px" font-style="normal" font-weight="normal" text-decoration="none" x="800" y="0">UNREGISTERED</text><text fill="#eeeeee" stroke="none" font-family="Arial" font-size="24px" font-style="normal" font-weight="normal" text-decoration="none" x="800" y="30">UNREGISTERED</text><text fill="#eeeeee" stroke="none" font-family="Arial" font-size="24px" font-style="normal" font-weight="normal" text-decoration="none" x="800" y="60">UNREGISTERED</text><text fill="#eeeeee" stroke="none" font-family="Arial" font-size="24px" font-style="normal" font-weight="normal" text-decoration="none" x="800" y="90">UNREGISTERED</text><text fill="#eeeeee" stroke="none" font-family="Arial" font-size="24px" font-style="normal" font-weight="normal" text-decoration="none" x="800" y="120">UNREGISTERED</text><text fill="#eeeeee" stroke="none" font-family="Arial" font-size="24px" font-style="normal" font-weight="normal" text-decoration="none" x="800" y="150">UNREGISTERED</text><text fill="#eeeeee" stroke="none" font-family="Arial" font-size="24px" font-style="normal" font-weight="normal" text-decoration="none" x="800" y="180">UNREGISTERED</text><text fill="#eeeeee" stroke="none" font-family="Arial" font-size="24px" font-style="normal" font-weight="normal" text-decoration="none" x="800" y="210">UNREGISTERED</text><text fill="#eeeeee" stroke="none" font-family="Arial" font-size="24px" font-style="normal" font-weight="normal" text-decoration="none" x="800" y="240">UNREGISTERED</text><text fill="#eeeeee" stroke="none" font-family="Arial" font-size="24px" font-style="normal" font-weight="normal" text-decoration="none" x="800" y="270">UNREGISTERED</text><text fill="#eeeeee" stroke="none" font-family="Arial" font-size="24px" font-style="normal" font-weight="normal" text-decoration="none" x="800" y="300">UNREGISTERED</text><text fill="#eeeeee" stroke="none" font-family="Arial" font-size="24px" font-style="normal" font-weight="normal" text-decoration="none" x="800" y="330">UNREGISTERED</text><text fill="#eeeeee" stroke="none" font-family="Arial" font-size="24px" font-style="normal" font-weight="normal" text-decoration="none" x="800" y="360">UNREGISTERED</text><text fill="#eeeeee" stroke="none" font-family="Arial" font-size="24px" font-style="normal" font-weight="normal" text-decoration="none" x="800" y="390">UNREGISTERED</text><text fill="#eeeeee" stroke="none" font-family="Arial" font-size="24px" font-style="normal" font-weight="normal" text-decoration="none" x="800" y="420">UNREGISTERED</text><text fill="#eeeeee" stroke="none" font-family="Arial" font-size="24px" font-style="normal" font-weight="normal" text-decoration="none" x="800" y="450">UNREGISTERED</text><text fill="#eeeeee" stroke="none" font-family="Arial" font-size="24px" font-style="normal" font-weight="normal" text-decoration="none" x="800" y="480">UNREGISTERED</text><text fill="#eeeeee" stroke="none" font-family="Arial" font-size="24px" font-style="normal" font-weight="normal" text-decoration="none" x="800" y="510">UNREGISTERED</text><text fill="#eeeeee" stroke="none" font-family="Arial" font-size="24px" font-style="normal" font-weight="normal" text-decoration="none" x="800" y="540">UNREGISTERED</text><text fill="#eeeeee" stroke="none" font-family="Arial" font-size="24px" font-style="normal" font-weight="normal" text-decoration="none" x="800" y="570">UNREGISTERED</text><g transform="translate(-214,-134) scale(1,1)"><rect fill="#C0C0C0" stroke="none" x="575" y="151" width="74.39990234375" height="40" opacity="0.2"/></g><g transform="translate(-214,-134) scale(1,1)"><rect fill="#ffffff" stroke="none" x="568" y="144" width="74.39990234375" height="40"/></g><g transform="translate(-214,-134) scale(1,1)"><path fill="none" stroke="#000000" d="M 568 144 L 642.39990234375 144 L 642.39990234375 184 L 568 184 L 568 144 Z Z" stroke-miterlimit="10"/></g><g transform="translate(-214,-134) scale(1,1)"><path fill="none" stroke="#000000" d="M 568 169 L 642.39990234375 169" stroke-miterlimit="10"/></g><g transform="translate(-214,-134) scale(1,1)"><g><path fill="none" stroke="none"/><text fill="#000000" stroke="none" font-family="Arial" font-size="13px" font-style="normal" font-weight="bold" text-decoration="none" x="586.7822265625" y="163.5">CUser</text></g></g><g transform="translate(-214,-134) scale(1,1)"><rect fill="#C0C0C0" stroke="none" x="391" y="271" width="72.33056640625" height="44" opacity="0.2"/></g><g transform="translate(-214,-134) scale(1,1)"><rect fill="#ffffff" stroke="none" x="384" y="264" width="72.33056640625" height="44"/></g><g transform="translate(-214,-134) scale(1,1)"><path fill="none" stroke="#000000" d="M 384 264 L 456.33056640625 264 L 456.33056640625 308 L 384 308 L 384 264 Z Z" stroke-miterlimit="10"/></g><g transform="translate(-214,-134) scale(1,1)"><path fill="none" stroke="#000000" d="M 384 289 L 456.33056640625 289" stroke-miterlimit="10"/></g><g transform="translate(-214,-134) scale(1,1)"><g><path fill="none" stroke="none"/><text fill="#000000" stroke="none" font-family="Arial" font-size="13px" font-style="normal" font-weight="bold" text-decoration="none" x="394.27001953125" y="283.5">CVigilant</text></g></g><g transform="translate(-214,-134) scale(1,1)"><path fill="none" stroke="#000000" d="M 424 264 L 424 166 L 568 166" stroke-miterlimit="10"/></g><g transform="translate(-214,-134) scale(1,1)"><path fill="#FFFFFF" stroke="none" d="M 547.6746502847517 174.41903551203197 L 568 166 L 547.6746502847517 157.58096448796803"/></g><g transform="translate(-214,-134) scale(1,1)"><path fill="none" stroke="#000000" d="M 547.6746502847517 174.41903551203197 L 568 166 L 547.6746502847517 157.58096448796803 L 547.6746502847517 174.41903551203197" stroke-miterlimit="10"/></g><g transform="translate(-214,-134) scale(1,1)"><rect fill="#C0C0C0" stroke="none" x="719" y="271" width="85.552734375" height="44" opacity="0.2"/></g><g transform="translate(-214,-134) scale(1,1)"><rect fill="#ffffff" stroke="none" x="712" y="264" width="85.552734375" height="44"/></g><g transform="translate(-214,-134) scale(1,1)"><path fill="none" stroke="#000000" d="M 712 264 L 797.552734375 264 L 797.552734375 308 L 712 308 L 712 264 Z Z" stroke-miterlimit="10"/></g><g transform="translate(-214,-134) scale(1,1)"><path fill="none" stroke="#000000" d="M 712 289 L 797.552734375 289" stroke-miterlimit="10"/></g><g transform="translate(-214,-134) scale(1,1)"><g><path fill="none" stroke="none"/><text fill="#000000" stroke="none" font-family="Arial" font-size="13px" font-style="normal" font-weight="bold" text-decoration="none" x="728.408203125" y="283.5">CCityzen</text></g></g><g transform="translate(-214,-134) scale(1,1)"><path fill="none" stroke="#000000" d="M 760 264 L 760 166 L 642 166" stroke-miterlimit="10"/></g><g transform="translate(-214,-134) scale(1,1)"><path fill="#FFFFFF" stroke="none" d="M 662.3253497152483 157.58096448796803 L 642 166 L 662.3253497152483 174.41903551203197"/></g><g transform="translate(-214,-134) scale(1,1)"><path fill="none" stroke="#000000" d="M 662.3253497152483 157.58096448796803 L 642 166 L 662.3253497152483 174.41903551203197 L 662.3253497152483 157.58096448796803" stroke-miterlimit="10"/></g><g transform="translate(-214,-134) scale(1,1)"><rect fill="#C0C0C0" stroke="none" x="231" y="367" width="77.6181640625" height="44" opacity="0.2"/></g><g transform="translate(-214,-134) scale(1,1)"><rect fill="#ffffff" stroke="none" x="224" y="360" width="77.6181640625" height="44"/></g><g transform="translate(-214,-134) scale(1,1)"><path fill="none" stroke="#000000" d="M 224 360 L 301.6181640625 360 L 301.6181640625 404 L 224 404 L 224 360 Z Z" stroke-miterlimit="10"/></g><g transform="translate(-214,-134) scale(1,1)"><path fill="none" stroke="#000000" d="M 224 385 L 301.6181640625 385" stroke-miterlimit="10"/></g><g transform="translate(-214,-134) scale(1,1)"><g><path fill="none" stroke="none"/><text fill="#000000" stroke="none" font-family="Arial" font-size="13px" font-style="normal" font-weight="bold" text-decoration="none" x="230.29638671875" y="379.5">CCompany</text></g></g><g transform="translate(-214,-134) scale(1,1)"><rect fill="#C0C0C0" stroke="none" x="719" y="423" width="89.88818359375" height="44" opacity="0.2"/></g><g transform="translate(-214,-134) scale(1,1)"><rect fill="#ffffff" stroke="none" x="712" y="416" width="89.88818359375" height="44"/></g><g transform="translate(-214,-134) scale(1,1)"><path fill="none" stroke="#000000" d="M 712 416 L 801.88818359375 416 L 801.88818359375 460 L 712 460 L 712 416 Z Z" stroke-miterlimit="10"/></g><g transform="translate(-214,-134) scale(1,1)"><path fill="none" stroke="#000000" d="M 712 441 L 801.88818359375 441" stroke-miterlimit="10"/></g><g transform="translate(-214,-134) scale(1,1)"><g><path fill="none" stroke="none"/><text fill="#000000" stroke="none" font-family="Arial" font-size="13px" font-style="normal" font-weight="bold" text-decoration="none" x="719.3818359375" y="435.5">CCommunity</text></g></g><g transform="translate(-214,-134) scale(1,1)"><path fill="none" stroke="#000000" d="M 760 308 L 760 416" stroke-miterlimit="10"/></g><g transform="translate(-214,-134) scale(1,1)"><path fill="#FFFFFF" stroke="none" d="M 755.790482243984 405.83732514237585 L 760 416 L 764.209517756016 405.83732514237585 L 760 394"/></g><g transform="translate(-214,-134) scale(1,1)"><path fill="none" stroke="#000000" d="M 755.790482243984 405.83732514237585 L 760 416 L 764.209517756016 405.83732514237585 L 760 394 L 755.790482243984 405.83732514237585" stroke-miterlimit="10"/></g><g transform="translate(-214,-134) scale(1,1)"><g><path fill="none" stroke="none"/><text fill="#000000" stroke="none" font-family="Arial" font-size="13px" font-style="normal" font-weight="normal" text-decoration="none" x="737.5" y="335.5">0..*</text></g></g><g transform="translate(-214,-134) scale(1,1)"><g><path fill="none" stroke="none"/><text fill="#000000" stroke="none" font-family="Arial" font-size="13px" font-style="normal" font-weight="normal" text-decoration="none" x="728.5" y="404.5">0..*</text></g></g><g transform="translate(-214,-134) scale(1,1)"><rect fill="#C0C0C0" stroke="none" x="391" y="423" width="72.54638671875" height="44" opacity="0.2"/></g><g transform="translate(-214,-134) scale(1,1)"><rect fill="#ffffff" stroke="none" x="384" y="416" width="72.54638671875" height="44"/></g><g transform="translate(-214,-134) scale(1,1)"><path fill="none" stroke="#000000" d="M 384 416 L 456.54638671875 416 L 456.54638671875 460 L 384 460 L 384 416 Z Z" stroke-miterlimit="10"/></g><g transform="translate(-214,-134) scale(1,1)"><path fill="none" stroke="#000000" d="M 384 441 L 456.54638671875 441" stroke-miterlimit="10"/></g><g transform="translate(-214,-134) scale(1,1)"><g><path fill="none" stroke="none"/><text fill="#000000" stroke="none" font-family="Arial" font-size="13px" font-style="normal" font-weight="bold" text-decoration="none" x="391.013671875" y="435.5">CContract</text></g></g><g transform="translate(-214,-134) scale(1,1)"><path fill="none" stroke="#000000" d="M 260 404 L 260 440 L 384 440" stroke-miterlimit="10"/></g><g transform="translate(-214,-134) scale(1,1)"><path fill="#000000" stroke="none" d="M 373.83732514237585 444.209517756016 L 384 440 L 373.83732514237585 435.790482243984 L 362 440"/></g><g transform="translate(-214,-134) scale(1,1)"><path fill="none" stroke="#000000" d="M 373.83732514237585 444.209517756016 L 384 440 L 373.83732514237585 435.790482243984 L 362 440 L 373.83732514237585 444.209517756016" stroke-miterlimit="10"/></g><g transform="translate(-214,-134) scale(1,1)"><g><path fill="none" stroke="none"/><text fill="#000000" stroke="none" font-family="Arial" font-size="13px" font-style="normal" font-weight="normal" text-decoration="none" x="243.641357421875" y="431.5">1</text></g></g><g transform="translate(-214,-134) scale(1,1)"><g><path fill="none" stroke="none"/><text fill="#000000" stroke="none" font-family="Arial" font-size="13px" font-style="normal" font-weight="normal" text-decoration="none" x="352.5" y="458.5">0..*</text></g></g><g transform="translate(-214,-134) scale(1,1)"><path fill="none" stroke="#000000" d="M 711 438 L 458 438" stroke-miterlimit="10"/></g><g transform="translate(-214,-134) scale(1,1)"><path fill="#000000" stroke="none" d="M 468.16267485762415 433.790482243984 L 458 438 L 468.16267485762415 442.209517756016 L 480 438"/></g><g transform="translate(-214,-134) scale(1,1)"><path fill="none" stroke="#000000" d="M 468.16267485762415 433.790482243984 L 458 438 L 468.16267485762415 442.209517756016 L 480 438 L 468.16267485762415 433.790482243984" stroke-miterlimit="10"/></g><g transform="translate(-214,-134) scale(1,1)"><g><path fill="none" stroke="none"/><text fill="#000000" stroke="none" font-family="Arial" font-size="13px" font-style="normal" font-weight="normal" text-decoration="none" x="637.641357421875" y="430.5">1</text></g></g><g transform="translate(-214,-134) scale(1,1)"><g><path fill="none" stroke="none"/><text fill="#000000" stroke="none" font-family="Arial" font-size="13px" font-style="normal" font-weight="normal" text-decoration="none" x="469.5" y="431.5">1..*</text></g></g><g transform="translate(-214,-134) scale(1,1)"><path fill="none" stroke="#000000" d="M 420 309 L 420 415" stroke-miterlimit="10"/></g><g transform="translate(-214,-134) scale(1,1)"><path fill="#000000" stroke="none" d="M 415.790482243984 404.83732514237585 L 420 415 L 424.209517756016 404.83732514237585 L 420 393"/></g><g transform="translate(-214,-134) scale(1,1)"><path fill="none" stroke="#000000" d="M 415.790482243984 404.83732514237585 L 420 415 L 424.209517756016 404.83732514237585 L 420 393 L 415.790482243984 404.83732514237585" stroke-miterlimit="10"/></g><g transform="translate(-214,-134) scale(1,1)"><g><path fill="none" stroke="none"/><text fill="#000000" stroke="none" font-family="Arial" font-size="13px" font-style="normal" font-weight="normal" text-decoration="none" x="384.58544921875" y="398.5">1..*</text></g></g><g transform="translate(-214,-134) scale(1,1)"><rect fill="#C0C0C0" stroke="none" x="703" y="567" width="65.10693359375" height="44" opacity="0.2"/></g><g transform="translate(-214,-134) scale(1,1)"><rect fill="#ffffff" stroke="none" x="696" y="560" width="65.10693359375" height="44"/></g><g transform="translate(-214,-134) scale(1,1)"><path fill="none" stroke="#000000" d="M 696 560 L 761.10693359375 560 L 761.10693359375 604 L 696 604 L 696 560 Z Z" stroke-miterlimit="10"/></g><g transform="translate(-214,-134) scale(1,1)"><path fill="none" stroke="#000000" d="M 696 585 L 761.10693359375 585" stroke-miterlimit="10"/></g><g transform="translate(-214,-134) scale(1,1)"><g><path fill="none" stroke="none"/><text fill="#000000" stroke="none" font-family="Arial" font-size="13px" font-style="normal" font-weight="bold" text-decoration="none" x="705.917724609375" y="579.5">CVisitor</text></g></g><g transform="translate(-214,-134) scale(1,1)"><rect fill="#C0C0C0" stroke="none" x="871" y="591" width="92.77001953125" height="44" opacity="0.2"/></g><g transform="translate(-214,-134) scale(1,1)"><rect fill="#ffffff" stroke="none" x="864" y="584" width="92.77001953125" height="44"/></g><g transform="translate(-214,-134) scale(1,1)"><path fill="none" stroke="#000000" d="M 864 584 L 956.77001953125 584 L 956.77001953125 628 L 864 628 L 864 584 Z Z" stroke-miterlimit="10"/></g><g transform="translate(-214,-134) scale(1,1)"><path fill="none" stroke="#000000" d="M 864 609 L 956.77001953125 609" stroke-miterlimit="10"/></g><g transform="translate(-214,-134) scale(1,1)"><g><path fill="none" stroke="none"/><text fill="#000000" stroke="none" font-family="Arial" font-size="13px" font-style="normal" font-weight="bold" text-decoration="none" x="871.365966796875" y="603.5">CMinuteBook</text></g></g><g transform="translate(-214,-134) scale(1,1)"><rect fill="#C0C0C0" stroke="none" x="703" y="663" width="63.1962890625" height="44" opacity="0.2"/></g><g transform="translate(-214,-134) scale(1,1)"><rect fill="#ffffff" stroke="none" x="696" y="656" width="63.1962890625" height="44"/></g><g transform="translate(-214,-134) scale(1,1)"><path fill="none" stroke="#000000" d="M 696 656 L 759.1962890625 656 L 759.1962890625 700 L 696 700 L 696 656 Z Z" stroke-miterlimit="10"/></g><g transform="translate(-214,-134) scale(1,1)"><path fill="none" stroke="#000000" d="M 696 681 L 759.1962890625 681" stroke-miterlimit="10"/></g><g transform="translate(-214,-134) scale(1,1)"><g><path fill="none" stroke="none"/><text fill="#000000" stroke="none" font-family="Arial" font-size="13px" font-style="normal" font-weight="bold" text-decoration="none" x="701.944091796875" y="675.5">CVehicle</text></g></g><g transform="translate(-214,-134) scale(1,1)"><path fill="none" stroke="#000000" d="M 720 656 L 720 604" stroke-miterlimit="10"/></g><g transform="translate(-214,-134) scale(1,1)"><g><path fill="none" stroke="none"/><text fill="#000000" stroke="none" font-family="Arial" font-size="13px" font-style="normal" font-weight="normal" text-decoration="none" x="730.58544921875" y="652.5">0..*</text></g></g><g transform="translate(-214,-134) scale(1,1)"><g><path fill="none" stroke="none"/><text fill="#000000" stroke="none" font-family="Arial" font-size="13px" font-style="normal" font-weight="normal" text-decoration="none" x="730.385009765625" y="627.5">1</text></g></g><g transform="translate(-214,-134) scale(1,1)"><rect fill="#C0C0C0" stroke="none" x="943" y="503" width="86.28271484375" height="44" opacity="0.2"/></g><g transform="translate(-214,-134) scale(1,1)"><rect fill="#ffffff" stroke="none" x="936" y="496" width="86.28271484375" height="44"/></g><g transform="translate(-214,-134) scale(1,1)"><path fill="none" stroke="#000000" d="M 936 496 L 1022.28271484375 496 L 1022.28271484375 540 L 936 540 L 936 496 Z Z" stroke-miterlimit="10"/></g><g transform="translate(-214,-134) scale(1,1)"><path fill="none" stroke="#000000" d="M 936 521 L 1022.28271484375 521" stroke-miterlimit="10"/></g><g transform="translate(-214,-134) scale(1,1)"><g><path fill="none" stroke="none"/><text fill="#000000" stroke="none" font-family="Arial" font-size="13px" font-style="normal" font-weight="bold" text-decoration="none" x="943.37548828125" y="515.5">CLostObject</text></g></g><g transform="translate(-214,-134) scale(1,1)"><rect fill="#C0C0C0" stroke="none" x="951" y="343" width="50.919921875" height="44" opacity="0.2"/></g><g transform="translate(-214,-134) scale(1,1)"><rect fill="#ffffff" stroke="none" x="944" y="336" width="50.919921875" height="44"/></g><g transform="translate(-214,-134) scale(1,1)"><path fill="none" stroke="#000000" d="M 944 336 L 994.919921875 336 L 994.919921875 380 L 944 380 L 944 336 Z Z" stroke-miterlimit="10"/></g><g transform="translate(-214,-134) scale(1,1)"><path fill="none" stroke="#000000" d="M 944 361 L 994.919921875 361" stroke-miterlimit="10"/></g><g transform="translate(-214,-134) scale(1,1)"><g><path fill="none" stroke="none"/><text fill="#000000" stroke="none" font-family="Arial" font-size="13px" font-style="normal" font-weight="bold" text-decoration="none" x="951.40087890625" y="355.5">CAlert</text></g></g><g transform="translate(-214,-134) scale(1,1)"><rect fill="#C0C0C0" stroke="none" x="951" y="423" width="76.90087890625" height="44" opacity="0.2"/></g><g transform="translate(-214,-134) scale(1,1)"><rect fill="#ffffff" stroke="none" x="944" y="416" width="76.90087890625" height="44"/></g><g transform="translate(-214,-134) scale(1,1)"><path fill="none" stroke="#000000" d="M 944 416 L 1020.90087890625 416 L 1020.90087890625 460 L 944 460 L 944 416 Z Z" stroke-miterlimit="10"/></g><g transform="translate(-214,-134) scale(1,1)"><path fill="none" stroke="#000000" d="M 944 441 L 1020.90087890625 441" stroke-miterlimit="10"/></g><g transform="translate(-214,-134) scale(1,1)"><g><path fill="none" stroke="none"/><text fill="#000000" stroke="none" font-family="Arial" font-size="13px" font-style="normal" font-weight="bold" text-decoration="none" x="951.02001953125" y="435.5">CInventory</text></g></g><g transform="translate(-214,-134) scale(1,1)"><rect fill="#C0C0C0" stroke="none" x="1151" y="423" width="50.919921875" height="44" opacity="0.2"/></g><g transform="translate(-214,-134) scale(1,1)"><rect fill="#ffffff" stroke="none" x="1144" y="416" width="50.919921875" height="44"/></g><g transform="translate(-214,-134) scale(1,1)"><path fill="none" stroke="#000000" d="M 1144 416 L 1194.919921875 416 L 1194.919921875 460 L 1144 460 L 1144 416 Z Z" stroke-miterlimit="10"/></g><g transform="translate(-214,-134) scale(1,1)"><path fill="none" stroke="#000000" d="M 1144 441 L 1194.919921875 441" stroke-miterlimit="10"/></g><g transform="translate(-214,-134) scale(1,1)"><g><path fill="none" stroke="none"/><text fill="#000000" stroke="none" font-family="Arial" font-size="13px" font-style="normal" font-weight="bold" text-decoration="none" x="1152.12451171875" y="435.5">CItem</text></g></g><g transform="translate(-214,-134) scale(1,1)"><path fill="none" stroke="#000000" d="M 1143 438 L 1022 438" stroke-miterlimit="10"/></g><g transform="translate(-214,-134) scale(1,1)"><path fill="#FFFFFF" stroke="none" d="M 1032.162674857624 433.790482243984 L 1022 438 L 1032.162674857624 442.209517756016 L 1044 438"/></g><g transform="translate(-214,-134) scale(1,1)"><path fill="none" stroke="#000000" d="M 1032.162674857624 433.790482243984 L 1022 438 L 1032.162674857624 442.209517756016 L 1044 438 L 1032.162674857624 433.790482243984" stroke-miterlimit="10"/></g><g transform="translate(-214,-134) scale(1,1)"><g><path fill="none" stroke="none"/><text fill="#000000" stroke="none" font-family="Arial" font-size="13px" font-style="normal" font-weight="normal" text-decoration="none" x="1111.5" y="431.5">0..*</text></g></g><g transform="translate(-214,-134) scale(1,1)"><g><path fill="none" stroke="none"/><text fill="#000000" stroke="none" font-family="Arial" font-size="13px" font-style="normal" font-weight="normal" text-decoration="none" x="1039.5" y="431.5">1</text></g></g><g transform="translate(-214,-134) scale(1,1)"><rect fill="#C0C0C0" stroke="none" x="527" y="487" width="81.947265625" height="44" opacity="0.2"/></g><g transform="translate(-214,-134) scale(1,1)"><rect fill="#ffffff" stroke="none" x="520" y="480" width="81.947265625" height="44"/></g><g transform="translate(-214,-134) scale(1,1)"><path fill="none" stroke="#000000" d="M 520 480 L 601.947265625 480 L 601.947265625 524 L 520 524 L 520 480 Z Z" stroke-miterlimit="10"/></g><g transform="translate(-214,-134) scale(1,1)"><path fill="none" stroke="#000000" d="M 520 505 L 601.947265625 505" stroke-miterlimit="10"/></g><g transform="translate(-214,-134) scale(1,1)"><g><path fill="none" stroke="none"/><text fill="#000000" stroke="none" font-family="Arial" font-size="13px" font-style="normal" font-weight="bold" text-decoration="none" x="526.29638671875" y="499.5">CCommand</text></g></g><g transform="translate(-214,-134) scale(1,1)"><rect fill="#C0C0C0" stroke="none" x="591" y="567" width="65.34814453125" height="44" opacity="0.2"/></g><g transform="translate(-214,-134) scale(1,1)"><rect fill="#ffffff" stroke="none" x="584" y="560" width="65.34814453125" height="44"/></g><g transform="translate(-214,-134) scale(1,1)"><path fill="none" stroke="#000000" d="M 584 560 L 649.34814453125 560 L 649.34814453125 604 L 584 604 L 584 560 Z Z" stroke-miterlimit="10"/></g><g transform="translate(-214,-134) scale(1,1)"><path fill="none" stroke="#000000" d="M 584 585 L 649.34814453125 585" stroke-miterlimit="10"/></g><g transform="translate(-214,-134) scale(1,1)"><g><path fill="none" stroke="none"/><text fill="#000000" stroke="none" font-family="Arial" font-size="13px" font-style="normal" font-weight="bold" text-decoration="none" x="590.305908203125" y="579.5">CNovelty</text></g></g><g transform="translate(-214,-134) scale(1,1)"><path fill="none" stroke="#000000" d="M 777 461 L 889 583" stroke-miterlimit="10"/></g><g transform="translate(-214,-134) scale(1,1)"><g><path fill="none" stroke="none"/><text fill="#000000" stroke="none" font-family="Arial" font-size="13px" font-style="normal" font-weight="normal" text-decoration="none" x="778.5" y="491.5">1</text></g></g><g transform="translate(-214,-134) scale(1,1)"><g><path fill="none" stroke="none"/><text fill="#000000" stroke="none" font-family="Arial" font-size="13px" font-style="normal" font-weight="normal" text-decoration="none" x="861.5" y="581.5">1</text></g></g><g transform="translate(-214,-134) scale(1,1)"><path fill="none" stroke="#000000" d="M 803 438 L 943 438" stroke-miterlimit="10"/></g><g transform="translate(-214,-134) scale(1,1)"><g><path fill="none" stroke="none"/><text fill="#000000" stroke="none" font-family="Arial" font-size="13px" font-style="normal" font-weight="normal" text-decoration="none" x="820.5" y="456.5">1</text></g></g><g transform="translate(-214,-134) scale(1,1)"><g><path fill="none" stroke="none"/><text fill="#000000" stroke="none" font-family="Arial" font-size="13px" font-style="normal" font-weight="normal" text-decoration="none" x="917.5" y="456.5">1</text></g></g><g transform="translate(-214,-134) scale(1,1)"><path fill="none" stroke="#000000" d="M 803 420 L 943 368" stroke-miterlimit="10"/></g><g transform="translate(-214,-134) scale(1,1)"><g><path fill="none" stroke="none"/><text fill="#000000" stroke="none" font-family="Arial" font-size="13px" font-style="normal" font-weight="normal" text-decoration="none" x="823.641357421875" y="430.5">1</text></g></g><g transform="translate(-214,-134) scale(1,1)"><g><path fill="none" stroke="none"/><text fill="#000000" stroke="none" font-family="Arial" font-size="13px" font-style="normal" font-weight="normal" text-decoration="none" x="917.5" y="393.5">0..*</text></g></g><g transform="translate(-214,-134) scale(1,1)"><path fill="none" stroke="#000000" d="M 803 455 L 935 502" stroke-miterlimit="10"/></g><g transform="translate(-214,-134) scale(1,1)"><g><path fill="none" stroke="none"/><text fill="#000000" stroke="none" font-family="Arial" font-size="13px" font-style="normal" font-weight="normal" text-decoration="none" x="815.5" y="480.5">1</text></g></g><g transform="translate(-214,-134) scale(1,1)"><g><path fill="none" stroke="none"/><text fill="#000000" stroke="none" font-family="Arial" font-size="13px" font-style="normal" font-weight="normal" text-decoration="none" x="900.5" y="512.5">0..*</text></g></g><g transform="translate(-214,-134) scale(1,1)"><path fill="none" stroke="#000000" d="M 732 559 L 752 461" stroke-miterlimit="10"/></g><g transform="translate(-214,-134) scale(1,1)"><g><path fill="none" stroke="none"/><text fill="#000000" stroke="none" font-family="Arial" font-size="13px" font-style="normal" font-weight="normal" text-decoration="none" x="738.5" y="546.5">0..*</text></g></g><g transform="translate(-214,-134) scale(1,1)"><g><path fill="none" stroke="none"/><text fill="#000000" stroke="none" font-family="Arial" font-size="13px" font-style="normal" font-weight="normal" text-decoration="none" x="749.5" y="490.5">0..*</text></g></g><g transform="translate(-214,-134) scale(1,1)"><path fill="none" stroke="#000000" d="M 638 559 L 734 461" stroke-miterlimit="10"/></g><g transform="translate(-214,-134) scale(1,1)"><g><path fill="none" stroke="none"/><text fill="#000000" stroke="none" font-family="Arial" font-size="13px" font-style="normal" font-weight="normal" text-decoration="none" x="652.5" y="558.5">0..*</text></g></g><g transform="translate(-214,-134) scale(1,1)"><g><path fill="none" stroke="none"/><text fill="#000000" stroke="none" font-family="Arial" font-size="13px" font-style="normal" font-weight="normal" text-decoration="none" x="723.5" y="491.5">1</text></g></g><g transform="translate(-214,-134) scale(1,1)"><path fill="none" stroke="#000000" d="M 603 488 L 711 453" stroke-miterlimit="10"/></g><g transform="translate(-214,-134) scale(1,1)"><g><path fill="none" stroke="none"/><text fill="#000000" stroke="none" font-family="Arial" font-size="13px" font-style="normal" font-weight="normal" text-decoration="none" x="617.58544921875" y="499.5">0..*</text></g></g><g transform="translate(-214,-134) scale(1,1)"><g><path fill="none" stroke="none"/><text fill="#000000" stroke="none" font-family="Arial" font-size="13px" font-style="normal" font-weight="normal" text-decoration="none" x="690.5" y="477.5">1</text></g></g><g transform="translate(-214,-134) scale(1,1)"><rect fill="#C0C0C0" stroke="none" x="535" y="343" width="68.2236328125" height="48" opacity="0.2"/></g><g transform="translate(-214,-134) scale(1,1)"><rect fill="#ffffff" stroke="none" x="528" y="336" width="68.2236328125" height="48"/></g><g transform="translate(-214,-134) scale(1,1)"><path fill="none" stroke="#000000" d="M 528 336 L 596.2236328125 336 L 596.2236328125 384 L 528 384 L 528 336 Z Z" stroke-miterlimit="10"/></g><g transform="translate(-214,-134) scale(1,1)"><path fill="none" stroke="#000000" d="M 528 361 L 596.2236328125 361" stroke-miterlimit="10"/></g><g transform="translate(-214,-134) scale(1,1)"><g><path fill="none" stroke="none"/><text fill="#000000" stroke="none" font-family="Arial" font-size="13px" font-style="normal" font-weight="bold" text-decoration="none" x="534.65185546875" y="355.5">CIncident</text></g></g><g transform="translate(-214,-134) scale(1,1)"><path fill="none" stroke="#000000" d="M 597 374 L 711 420" stroke-miterlimit="10"/></g><g transform="translate(-214,-134) scale(1,1)"><g><path fill="none" stroke="none"/><text fill="#000000" stroke="none" font-family="Arial" font-size="13px" font-style="normal" font-weight="normal" text-decoration="none" x="602.5" y="399.5">0..*</text></g></g><g transform="translate(-214,-134) scale(1,1)"><g><path fill="none" stroke="none"/><text fill="#000000" stroke="none" font-family="Arial" font-size="13px" font-style="normal" font-weight="normal" text-decoration="none" x="695.5" y="428.5">1</text></g></g><g transform="translate(-214,-134) scale(1,1)"><rect fill="#C0C0C0" stroke="none" x="519" y="247" width="149.87353515625" height="44" opacity="0.2"/></g><g transform="translate(-214,-134) scale(1,1)"><rect fill="#ffffff" stroke="none" x="512" y="240" width="149.87353515625" height="44"/></g><g transform="translate(-214,-134) scale(1,1)"><path fill="none" stroke="#000000" d="M 512 240 L 661.87353515625 240 L 661.87353515625 284 L 512 284 L 512 240 Z Z" stroke-miterlimit="10"/></g><g transform="translate(-214,-134) scale(1,1)"><path fill="none" stroke="#000000" d="M 512 265 L 661.87353515625 265" stroke-miterlimit="10"/></g><g transform="translate(-214,-134) scale(1,1)"><g><path fill="none" stroke="none"/><text fill="#000000" stroke="none" font-family="Arial" font-size="13px" font-style="normal" font-weight="bold" text-decoration="none" x="521.17822265625" y="259.5">CPreventionProcedure</text></g></g><g transform="translate(-214,-134) scale(1,1)"><path fill="none" stroke="#000000" d="M 608 285 L 734 415" stroke-miterlimit="10"/></g><g transform="translate(-214,-134) scale(1,1)"><g><path fill="none" stroke="none"/><text fill="#000000" stroke="none" font-family="Arial" font-size="13px" font-style="normal" font-weight="normal" text-decoration="none" x="604.5" y="315.5">0..*</text></g></g><g transform="translate(-214,-134) scale(1,1)"><g><path fill="none" stroke="none"/><text fill="#000000" stroke="none" font-family="Arial" font-size="13px" font-style="normal" font-weight="normal" text-decoration="none" x="705.641357421875" y="414.5">1</text></g></g><g transform="translate(-214,-134) scale(1,1)"><rect fill="#C0C0C0" stroke="none" x="959" y="247" width="113.5205078125" height="44" opacity="0.2"/></g><g transform="translate(-214,-134) scale(1,1)"><rect fill="#ffffff" stroke="none" x="952" y="240" width="113.5205078125" height="44"/></g><g transform="translate(-214,-134) scale(1,1)"><path fill="none" stroke="#000000" d="M 952 240 L 1065.5205078125 240 L 1065.5205078125 284 L 952 284 L 952 240 Z Z" stroke-miterlimit="10"/></g><g transform="translate(-214,-134) scale(1,1)"><path fill="none" stroke="#000000" d="M 952 265 L 1065.5205078125 265" stroke-miterlimit="10"/></g><g transform="translate(-214,-134) scale(1,1)"><g><path fill="none" stroke="none"/><text fill="#000000" stroke="none" font-family="Arial" font-size="13px" font-style="normal" font-weight="bold" text-decoration="none" x="968.658935546875" y="259.5">CSurveillance</text></g></g><g transform="translate(-214,-134) scale(1,1)"><path fill="none" stroke="#000000" d="M 975 285 L 789 415" stroke-miterlimit="10"/></g><g transform="translate(-214,-134) scale(1,1)"><g><path fill="none" stroke="none"/><text fill="#000000" stroke="none" font-family="Arial" font-size="13px" font-style="normal" font-weight="normal" text-decoration="none" x="919.5" y="308.5">0..*</text></g></g><g transform="translate(-214,-134) scale(1,1)"><g><path fill="none" stroke="none"/><text fill="#000000" stroke="none" font-family="Arial" font-size="13px" font-style="normal" font-weight="normal" text-decoration="none" x="795.5" y="398.5">1</text></g></g><g transform="translate(-214,-134) scale(1,1)"><rect fill="#C0C0C0" stroke="none" x="831" y="167" width="73.3017578125" height="44" opacity="0.2"/></g><g transform="translate(-214,-134) scale(1,1)"><rect fill="#ffffff" stroke="none" x="824" y="160" width="73.3017578125" height="44"/></g><g transform="translate(-214,-134) scale(1,1)"><path fill="none" stroke="#000000" d="M 824 160 L 897.3017578125 160 L 897.3017578125 204 L 824 204 L 824 160 Z Z" stroke-miterlimit="10"/></g><g transform="translate(-214,-134) scale(1,1)"><path fill="none" stroke="#000000" d="M 824 185 L 897.3017578125 185" stroke-miterlimit="10"/></g><g transform="translate(-214,-134) scale(1,1)"><g><path fill="none" stroke="none"/><text fill="#000000" stroke="none" font-family="Arial" font-size="13px" font-style="normal" font-weight="bold" text-decoration="none" x="842.7060546875" y="179.5">CStaff</text></g></g><g transform="translate(-214,-134) scale(1,1)"><path fill="none" stroke="#000000" d="M 851 205 L 765 415" stroke-miterlimit="10"/></g><g transform="translate(-214,-134) scale(1,1)"><g><path fill="none" stroke="none"/><text fill="#000000" stroke="none" font-family="Arial" font-size="13px" font-style="normal" font-weight="normal" text-decoration="none" x="827.5" y="226.5">1</text></g></g><g transform="translate(-214,-134) scale(1,1)"><g><path fill="none" stroke="none"/><text fill="#000000" stroke="none" font-family="Arial" font-size="13px" font-style="normal" font-weight="normal" text-decoration="none" x="743.5" y="387.5">1</text></g></g><g transform="translate(-214,-134) scale(1,1)"><rect fill="#C0C0C0" stroke="none" x="1015" y="167" width="62.9423828125" height="44" opacity="0.2"/></g><g transform="translate(-214,-134) scale(1,1)"><rect fill="#ffffff" stroke="none" x="1008" y="160" width="62.9423828125" height="44"/></g><g transform="translate(-214,-134) scale(1,1)"><path fill="none" stroke="#000000" d="M 1008 160 L 1070.9423828125 160 L 1070.9423828125 204 L 1008 204 L 1008 160 Z Z" stroke-miterlimit="10"/></g><g transform="translate(-214,-134) scale(1,1)"><path fill="none" stroke="#000000" d="M 1008 185 L 1070.9423828125 185" stroke-miterlimit="10"/></g><g transform="translate(-214,-134) scale(1,1)"><g><path fill="none" stroke="none"/><text fill="#000000" stroke="none" font-family="Arial" font-size="13px" font-style="normal" font-weight="bold" text-decoration="none" x="1013.950439453125" y="179.5">CWorker</text></g></g><g transform="translate(-214,-134) scale(1,1)"><path fill="none" stroke="#000000" d="M 898 182 L 1007 182" stroke-miterlimit="10"/></g><g transform="translate(-214,-134) scale(1,1)"><g><path fill="none" stroke="none"/><text fill="#000000" stroke="none" font-family="Arial" font-size="13px" font-style="normal" font-weight="normal" text-decoration="none" x="915.641357421875" y="200.5">1</text></g></g><g transform="translate(-214,-134) scale(1,1)"><g><path fill="none" stroke="none"/><text fill="#000000" stroke="none" font-family="Arial" font-size="13px" font-style="normal" font-weight="normal" text-decoration="none" x="975.5" y="200.5">0..*</text></g></g></g></svg>